<svg width="57" height="57" viewBox="0 0 57 57" fill="none" xmlns="http://www.w3.org/2000/svg">
<path d="M30.9949 46.663H13.1885V19.6394C13.1896 19.4817 13.2329 19.3273 13.3137 19.192C13.3946 19.0567 13.5102 18.9454 13.6485 18.8698L29.6857 10.1037C29.8206 10.0299 29.9724 9.99251 30.1262 9.99526C30.2799 9.99801 30.4302 10.0408 30.5624 10.1194C30.6946 10.198 30.804 10.3096 30.8798 10.4434C30.9557 10.5771 30.9953 10.7283 30.9949 10.8821V46.663Z" stroke="#222D39" stroke-width="1.92997" stroke-linecap="round"/>
<path d="M43.4233 46.6637H31.0835V19.1182L43.0075 25.9382C43.135 26.0179 43.2401 26.1287 43.3128 26.2603C43.3856 26.3918 43.4236 26.5398 43.4233 26.6901V46.6637Z" stroke="#222D39" stroke-width="1.92997" stroke-linecap="round"/>
<path d="M25.0506 22.0098H18.8232" stroke="#E98862" stroke-width="1.92997" stroke-linecap="round"/>
<path d="M38.8149 28.6885H35.7012" stroke="#E98862" stroke-width="1.92997" stroke-linecap="round"/>
<path d="M38.8149 32.6602H35.7012" stroke="#E98862" stroke-width="1.92997" stroke-linecap="round"/>
<path d="M38.8149 36.916H35.7012" stroke="#E98862" stroke-width="1.92997" stroke-linecap="round"/>
<path d="M38.8149 40.8789H35.7012" stroke="#E98862" stroke-width="1.92997" stroke-linecap="round"/>
<path d="M25.0506 26.9463H18.8232" stroke="#E98862" stroke-width="1.92997" stroke-linecap="round"/>
<path d="M25.0506 31.8115H18.8232" stroke="#E98862" stroke-width="1.92997" stroke-linecap="round"/>
<path d="M25.0506 36.6768H18.8232" stroke="#E98862" stroke-width="1.92997" stroke-linecap="round"/>
<path d="M25.0506 41.542H18.8232" stroke="#E98862" stroke-width="1.92997" stroke-linecap="round"/>
<path d="M8.5625 46.6641H48.439" stroke="#222D39" stroke-width="1.92997" stroke-linecap="round"/>
</svg>
