<svg width="56" height="56" viewBox="0 0 56 56" fill="none" xmlns="http://www.w3.org/2000/svg">
<path d="M7.84 6.72022C7.54298 6.72027 7.25814 6.8383 7.04813 7.04834L3.68813 10.4083C3.55133 10.545 3.45223 10.7147 3.40049 10.901C3.34874 11.0873 3.34609 11.2838 3.39281 11.4715L4.51281 15.9515C4.57336 16.194 4.71327 16.4092 4.91028 16.563C5.10728 16.7168 5.35007 16.8003 5.6 16.8002H11.2V19.0402H9.62938C7.5147 19.0402 5.57612 20.2374 4.62656 22.1268L4.66156 22.0612L0.826875 28.5777C0.286173 29.4588 0 30.4716 0 31.5046V41.7858C0 43.4379 1.36233 44.8002 3.01437 44.8002H4.58281C5.12077 47.9678 7.88461 50.4002 11.2 50.4002C14.5154 50.4002 17.2792 47.9678 17.8172 44.8002H38.1828C38.7208 47.9678 41.4846 50.4002 44.8 50.4002C48.1154 50.4002 50.8792 47.9678 51.4172 44.8002H52.64C54.4829 44.8002 56 43.2831 56 41.4402V36.2755C56 33.5459 54.0128 31.2017 51.3209 30.7521L41.9934 29.1968L34.1972 21.0308C33.1336 19.7685 31.566 19.0402 29.9163 19.0402H29.12V16.8002H34.72C34.928 16.8002 35.1319 16.7423 35.3089 16.633C35.4858 16.5236 35.6288 16.3672 35.7219 16.1812L37.9619 11.7012C38.036 11.553 38.0763 11.3902 38.0799 11.2245C38.0835 11.0589 38.0504 10.8945 37.9828 10.7432C37.9152 10.5919 37.8149 10.4575 37.6891 10.3497C37.5633 10.2418 37.4151 10.1633 37.2553 10.1196L24.9353 6.75959C24.8391 6.73337 24.7398 6.72013 24.64 6.72022H7.84ZM8.30375 8.96022H24.4891L35.3478 11.9221L34.0288 14.5602H6.475L5.72031 11.5437L8.30375 8.96022ZM13.44 16.8002H26.88V19.0402H13.44V16.8002ZM9.62938 21.2802H19.04V29.1202H3.10625L6.61062 23.1658L6.62813 23.1308C7.19952 21.9939 8.35717 21.2802 9.62938 21.2802ZM21.28 21.2802H29.9163C30.9074 21.2802 31.8456 21.7164 32.4844 22.4746L32.5062 22.5008L38.8216 29.1202H21.28V21.2802ZM2.24875 31.3602H41.3459L50.9534 32.9615C52.5803 33.2332 53.76 34.626 53.76 36.2755V41.4402C53.76 42.0613 53.2611 42.5602 52.64 42.5602H51.4172C50.8792 39.3926 48.1154 36.9602 44.8 36.9602C41.4846 36.9602 38.7208 39.3926 38.1828 42.5602H17.8172C17.2792 39.3926 14.5154 36.9602 11.2 36.9602C7.88461 36.9602 5.12077 39.3926 4.58281 42.5602H3.01437C2.57426 42.5602 2.24 42.226 2.24 41.7858V31.5046C2.24 31.4561 2.24668 31.4085 2.24875 31.3602ZM11.2 39.2002C13.6868 39.2002 15.68 41.1934 15.68 43.6802C15.68 46.167 13.6868 48.1602 11.2 48.1602C8.71318 48.1602 6.72 46.167 6.72 43.6802C6.72 41.1934 8.71318 39.2002 11.2 39.2002ZM44.8 39.2002C47.2868 39.2002 49.28 41.1934 49.28 43.6802C49.28 46.167 47.2868 48.1602 44.8 48.1602C42.3132 48.1602 40.32 46.167 40.32 43.6802C40.32 41.1934 42.3132 39.2002 44.8 39.2002Z" fill="black"/>
<path d="M11.2 39.1996C13.6868 39.1996 15.68 41.1928 15.68 43.6796C15.68 46.1664 13.6868 48.1596 11.2 48.1596C8.71318 48.1596 6.72 46.1664 6.72 43.6796C6.72 41.1928 8.71318 39.1996 11.2 39.1996ZM44.8 39.1996C47.2868 39.1996 49.28 41.1928 49.28 43.6796C49.28 46.1664 47.2868 48.1596 44.8 48.1596C42.3132 48.1596 40.32 46.1664 40.32 43.6796C40.32 41.1928 42.3132 39.1996 44.8 39.1996Z" fill="#0CBC8B"/>
<path d="M8.30399 8.95973H24.4893L35.3481 11.9216L34.029 14.5597H6.47524L5.72055 11.5432L8.30399 8.95973ZM13.4402 16.7997H26.8802V19.0397H13.4402V16.7997Z" fill="#E98862"/>
</svg>
