<svg width="56" height="56" viewBox="0 0 56 56" fill="none" xmlns="http://www.w3.org/2000/svg">
<path fill-rule="evenodd" clip-rule="evenodd" d="M9.33317 16.3335C9.33317 15.0448 10.3778 14.0002 11.6665 14.0002H44.3332C45.6219 14.0002 46.6665 15.0448 46.6665 16.3335V18.6668H46.5764H46.488H46.3998H46.3116H46.2236H46.1357H46.0477H45.96H45.8722H45.7845H45.697H45.6095H45.5222H45.435H45.3479H45.2607H45.1739H45.0868H45H44.9135H44.8267H44.7401H44.6538H44.5674H44.4811H44.3948H44.3087H44.2228H44.1367H44.0508H43.9652H43.8796H43.7939H43.7083H43.6229H43.5375H43.4523H43.3669H43.282H43.1968H43.1119H43.027H42.9423H42.8576H42.7729H42.6882H42.6037H42.5192H42.435H42.3508H42.2665H42.1823H42.0983H42.0143H41.9305H41.8465H41.7628H41.6792H41.5957H41.5119H41.4286H41.3451H41.2618H41.1785H41.0954H41.0124H40.9293H40.8462H40.7634H40.6806H40.5977H40.5149H40.4323H40.3497H40.2673H40.1847H40.1024H40.02H39.9379H39.8557H39.7734H39.6915H39.6093H39.5274H39.4455H39.3636H39.282H39.2003H39.1186H39.037H38.9555H38.8741H38.7927H38.7112H38.6298H38.5486H38.4674H38.3864H38.3052H38.2243H38.1433H38.0623H37.9814H37.9006H37.8199H37.7392H37.6584H37.5779H37.4974H37.4169H37.3364H37.2559H37.1757H37.0954H37.0151H36.9349H36.8548H36.7746H36.6945H36.6145H36.5345H36.4547H36.3746H36.2948H36.215H36.1352H36.0557H35.9759H35.8963H35.8167H35.7372H35.6578H35.5783H35.4989H35.4194H35.34H35.2609H35.1816H35.1023H35.0232H34.9441H34.865H34.7859H34.7068H34.6279H34.5488H34.4699H34.3911H34.3122H34.2333H34.1545H34.0758H33.997H33.9183H33.8397H33.7611H33.6824H33.6038H33.5254H33.4468H33.3684H33.29H33.2116H33.1332H33.0548H32.9764H32.898H32.8198H32.7416H32.6632H32.5851H32.5069H32.4287H32.3506H32.2724H32.1945H32.1163H32.0384H31.9602H31.8823H31.8043H31.7262H31.6482H31.5703H31.4926H31.4147H31.3367H31.2588H31.1811H31.1032H31.0255H30.9478H30.8698H30.7921H30.7144H30.6367H30.559H30.4813H30.4036H30.3259H30.2482H30.1705H30.0931H30.0154H29.9377H29.8602H29.7825H29.705H29.6273H29.5499H29.4724H29.3947H29.3172H29.2398H29.1621H29.0846H29.0071H28.9297H28.8522H28.7747H28.6973H28.6196H28.5421H28.4646H28.3872H28.3097H28.2322H28.1548H28.0773H27.9998H27.9224H27.8449H27.7674H27.69H27.6125H27.535H27.4576H27.3801H27.3024H27.2249H27.1475H27.07H26.9925H26.9151H26.8376H26.7599H26.6824H26.605H26.5273H26.4498H26.3723H26.2946H26.2172H26.1395H26.062H25.9843H25.9066H25.8291H25.7514H25.6737H25.596H25.5183H25.4406H25.3629H25.2852H25.2075H25.1298H25.0519H24.9742H24.8965H24.8186H24.7409H24.6629H24.585H24.5071H24.4294H24.3514H24.2735H24.1953H24.1174H24.0395H23.9613H23.8834H23.8052H23.7273H23.6491H23.5709H23.4928H23.4146H23.3364H23.2581H23.1799H23.1016H23.0233H22.9449H22.8666H22.7882H22.7097H22.6313H22.5528H22.4743H22.3958H22.3172H22.2386H22.1599H22.0813H22.0026H21.9239H21.8451H21.7663H21.6875H21.6086H21.5297H21.4508H21.3718H21.2929H21.2138H21.1347H21.0556H20.9765H20.8973H20.8181H20.7388H20.6595H20.5802H20.5008H20.4214H20.3419H20.2624H20.1829H20.1033H20.0237H19.944H19.8643H19.7846H19.7048H19.6249H19.545H19.4651H19.3851H19.3051H19.2251H19.145H19.0648H18.9846H18.9043H18.824H18.7436H18.6633H18.5828H18.5023H18.4217H18.3411H18.2605H18.1798H18.099H18.0182H17.9373H17.8564H17.7754H17.6944H17.6133H17.5322H17.451H17.3698H17.2885H17.2071H17.1257H17.0442H16.9627H16.8811H16.7994H16.7177H16.6359H16.5541H16.4722H16.3903H16.3082H16.2262H16.1441H16.0618H15.9796H15.8973H15.8149H15.7324H15.6499H15.5673H15.4847H15.402H15.3192H15.2363H15.1534H15.0704H14.9874H14.9043H14.8211H14.7378H14.6545H14.5711H14.4876H14.4041H14.3205H14.2368H14.153H14.0692H13.9853H13.9013H13.8173H13.7332H13.649H13.5647H13.4804H13.3959H13.3114H13.2268H13.1422H13.0575H12.9727H12.8878H12.8028H12.7178H12.6326H12.5475H12.4622H12.3768H12.2913H12.2058H12.1202H12.0345H11.9487H11.8629H11.7769H11.6909H11.6048H11.5186H11.4323H11.3459H11.2595H11.1729H11.0863H10.9996H10.9128H10.8259H10.7389H10.6518H10.5647H10.4774H10.3901H10.3026H10.2151H10.1275H10.0398H9.95199H9.8641H9.77611H9.68802H9.59985H9.51158H9.42321H9.33476L9.33317 16.3335ZM9.33317 42.0002V25.6668H46.6665V42.0002C46.6665 43.2889 45.6219 44.3335 44.3332 44.3335H11.6665C10.3778 44.3335 9.33317 43.2889 9.33317 42.0002ZM11.6665 9.3335C7.80052 9.3335 4.6665 12.4675 4.6665 16.3335V21.0002V23.3335V42.0002C4.6665 45.8663 7.80052 49.0002 11.6665 49.0002H44.3332C48.1993 49.0002 51.3332 45.8663 51.3332 42.0002V23.3335V21.0002V16.3335C51.3332 12.4675 48.1993 9.3335 44.3332 9.3335H11.6665ZM32.6665 32.6668C31.3778 32.6668 30.3332 33.7115 30.3332 35.0002C30.3332 36.2889 31.3778 37.3335 32.6665 37.3335H41.9998C43.2885 37.3335 44.3332 36.2889 44.3332 35.0002C44.3332 33.7115 43.2885 32.6668 41.9998 32.6668H32.6665Z" fill="black"/>
<path fill-rule="evenodd" clip-rule="evenodd" d="M32.6666 32.6668C31.3779 32.6668 30.3333 33.7115 30.3333 35.0002C30.3333 36.2889 31.3779 37.3335 32.6666 37.3335H41.9999C43.2886 37.3335 44.3333 36.2889 44.3333 35.0002C44.3333 33.7115 43.2886 32.6668 41.9999 32.6668H32.6666Z" fill="#E98862"/>
</svg>
