<svg width="41" height="40" viewBox="0 0 41 40" fill="none" xmlns="http://www.w3.org/2000/svg">
<path d="M30.8283 19.9999C29.43 18.8278 27.6523 18.2056 25.8283 18.2499H14.1033C13.5687 18.2634 13.0369 18.1689 12.5397 17.972C12.0425 17.7752 11.5901 17.48 11.2096 17.1042C10.8292 16.7284 10.5284 16.2797 10.3255 15.785C10.1225 15.2902 10.0214 14.7596 10.0283 14.2249C10.0153 14.0168 10.0153 13.808 10.0283 13.5999C10.1859 12.6444 10.687 11.7793 11.4373 11.1671C12.1876 10.5549 13.1356 10.2376 14.1033 10.2749H25.6533C26.5955 10.2741 27.5073 10.6079 28.2262 11.2169C28.945 11.8259 29.4242 12.6704 29.5783 13.5999H33.3283C33.1713 11.6722 32.2947 9.87424 30.8726 8.56338C29.4506 7.25252 27.5873 6.5248 25.6533 6.5249H21.7033V0.774902H18.5783V6.5249H14.1033C12.1693 6.5248 10.306 7.25252 8.88397 8.56338C7.46194 9.87424 6.58528 11.6722 6.4283 13.5999C6.41583 13.8081 6.41583 14.0168 6.4283 14.2249C6.4283 15.2328 6.62682 16.2308 7.01252 17.162C7.39823 18.0932 7.96356 18.9393 8.67625 19.6519C10.1156 21.0913 12.0678 21.8999 14.1033 21.8999H25.9533C26.4837 21.8866 27.0113 21.9795 27.5052 22.1733C27.9991 22.3671 28.4491 22.6577 28.8289 23.0282C29.2087 23.3986 29.5105 23.8414 29.7164 24.3303C29.9224 24.8192 30.0285 25.3444 30.0283 25.8749C30.0542 26.1576 30.0542 26.4422 30.0283 26.7249C29.8298 27.6045 29.3381 28.3905 28.634 28.9539C27.9298 29.5172 27.055 29.8243 26.1533 29.8249H14.4033C13.5015 29.8243 12.6268 29.5172 11.9226 28.9539C11.2185 28.3905 10.7268 27.6045 10.5283 26.7249H6.7533C6.96814 28.6033 7.86655 30.337 9.27734 31.5956C10.6881 32.8543 12.5127 33.5499 14.4033 33.5499H18.5783V39.2249H21.7033V33.5499H25.9533C27.8439 33.5499 29.6685 32.8543 31.0793 31.5956C32.49 30.337 33.3885 28.6033 33.6033 26.7249V25.8749C33.6003 24.752 33.3501 23.6435 32.8705 22.6282C32.3909 21.6128 31.6937 20.7155 30.8283 19.9999Z" fill="black"/>
</svg>
