<svg width="63" height="43" viewBox="0 0 63 43" fill="none" xmlns="http://www.w3.org/2000/svg">
<path d="M17.4984 19.5446C22.7417 19.5446 26.9923 15.294 26.9923 10.0506C26.9923 4.80723 22.7417 0.556641 17.4984 0.556641C12.255 0.556641 8.00439 4.80723 8.00439 10.0506C8.00439 15.294 12.255 19.5446 17.4984 19.5446Z" fill="#222D39"/>
<path d="M45.7186 19.5446C50.9619 19.5446 55.2125 15.294 55.2125 10.0506C55.2125 4.80723 50.9619 0.556641 45.7186 0.556641C40.4752 0.556641 36.2246 4.80723 36.2246 10.0506C36.2246 15.294 40.4752 19.5446 45.7186 19.5446Z" fill="#E98862"/>
<path d="M19.5631 25.8621V37.4395H15.4333V25.8621C6.90351 26.8823 0.290527 34.1413 0.290527 42.946H34.7059C34.7059 34.1413 28.0929 26.8823 19.5631 25.8621Z" fill="#222D39"/>
<path d="M47.783 25.8625V37.4399H43.6532V25.8621C40.1416 26.2822 36.955 27.7593 34.4209 29.9668C37.1873 33.5655 38.835 38.0667 38.835 42.9464H62.9258C62.9258 34.1417 56.3128 26.8827 47.783 25.8625Z" fill="#E98862"/>
</svg>
