<svg width="46" height="45" viewBox="0 0 46 45" fill="none" xmlns="http://www.w3.org/2000/svg">
<path d="M15.4603 22.5652C16.7722 22.5652 17.8357 21.5017 17.8357 20.1898C17.8357 18.8779 16.7722 17.8145 15.4603 17.8145C14.1484 17.8145 13.085 18.8779 13.085 20.1898C13.085 21.5017 14.1484 22.5652 15.4603 22.5652Z" fill="#0CBC8B"/>
<path d="M22.5913 35.2338C18.0959 35.2338 14.3152 32.3112 13.1186 28.3226C13.0851 28.2039 13.0798 28.079 13.1032 27.9579C13.1265 27.8368 13.1778 27.7228 13.253 27.6251C13.3281 27.5273 13.4251 27.4484 13.5362 27.3948C13.6472 27.3411 13.7692 27.3142 13.8925 27.316H31.2811C31.4044 27.3142 31.5265 27.3411 31.6375 27.3948C31.7485 27.4484 31.8455 27.5273 31.9207 27.6251C31.9959 27.7228 32.0472 27.8368 32.0705 27.9579C32.0938 28.079 32.0886 28.2039 32.0551 28.3226C30.8684 32.3112 27.0866 35.2338 22.5913 35.2338Z" fill="#0CBC8B"/>
<path d="M29.7123 22.5652C31.0241 22.5652 32.0876 21.5017 32.0876 20.1898C32.0876 18.8779 31.0241 17.8145 29.7123 17.8145C28.4004 17.8145 27.3369 18.8779 27.3369 20.1898C27.3369 21.5017 28.4004 22.5652 29.7123 22.5652Z" fill="#0CBC8B"/>
<path d="M22.5864 43.1513C33.9559 43.1513 43.1728 33.9345 43.1728 22.5649C43.1728 11.1954 33.9559 1.97852 22.5864 1.97852C11.2168 1.97852 2 11.1954 2 22.5649C2 33.9345 11.2168 43.1513 22.5864 43.1513Z" stroke="#0CBC8B" stroke-width="3.66791" stroke-miterlimit="10"/>
</svg>
