<svg width="42" height="43" viewBox="0 0 42 43" fill="none" xmlns="http://www.w3.org/2000/svg">
<path d="M20.8205 42.1927C9.42542 42.1927 0.188477 32.9558 0.188477 21.5607C0.188477 10.1657 9.42542 0.928711 20.8205 0.928711C32.2155 0.928711 41.4525 10.1657 41.4525 21.5607C41.4525 32.9558 32.2155 42.1927 20.8205 42.1927ZM20.8205 38.0663C25.198 38.0663 29.3963 36.3273 32.4917 33.2319C35.5871 30.1365 37.3261 25.9383 37.3261 21.5607C37.3261 17.1831 35.5871 12.9849 32.4917 9.88949C29.3963 6.79409 25.198 5.05511 20.8205 5.05511C16.4429 5.05511 12.2447 6.79409 9.14925 9.88949C6.05385 12.9849 4.31488 17.1831 4.31488 21.5607C4.31488 25.9383 6.05385 30.1365 9.14925 33.2319C12.2447 36.3273 16.4429 38.0663 20.8205 38.0663ZM12.5677 25.6871H29.0733V29.8135H12.5677V25.6871ZM12.5677 19.4975C11.7469 19.4975 10.9597 19.1714 10.3793 18.5911C9.79893 18.0107 9.47288 17.2235 9.47288 16.4027C9.47288 15.5819 9.79893 14.7947 10.3793 14.2144C10.9597 13.634 11.7469 13.3079 12.5677 13.3079C13.3885 13.3079 14.1756 13.634 14.756 14.2144C15.3364 14.7947 15.6625 15.5819 15.6625 16.4027C15.6625 17.2235 15.3364 18.0107 14.756 18.5911C14.1756 19.1714 13.3885 19.4975 12.5677 19.4975ZM29.0733 19.4975C28.2525 19.4975 27.4653 19.1714 26.8849 18.5911C26.3045 18.0107 25.9785 17.2235 25.9785 16.4027C25.9785 15.5819 26.3045 14.7947 26.8849 14.2144C27.4653 13.634 28.2525 13.3079 29.0733 13.3079C29.8941 13.3079 30.6812 13.634 31.2616 14.2144C31.842 14.7947 32.1681 15.5819 32.1681 16.4027C32.1681 17.2235 31.842 18.0107 31.2616 18.5911C30.6812 19.1714 29.8941 19.4975 29.0733 19.4975Z" fill="#0CBC8B"/>
</svg>
