<svg width="43" height="43" viewBox="0 0 43 43" fill="none" xmlns="http://www.w3.org/2000/svg">
<path d="M21.4762 29.2977C24.4743 29.2977 26.5698 27.8873 27.7948 26.5656C28.5121 25.7838 29.7371 25.7274 30.5269 26.4527C31.3087 27.1781 31.357 28.4031 30.6317 29.1849C28.8667 31.1111 25.8041 33.1662 21.4762 33.1662C17.1483 33.1662 14.0858 31.1111 12.3208 29.1849C11.5954 28.4031 11.5713 27.1781 12.4256 26.4527C13.2154 25.7274 14.4404 25.7838 15.1577 26.5656C16.3827 27.8873 18.4781 29.2977 21.4762 29.2977ZM18.3814 19.3686L18.3653 19.3444C18.3492 19.3283 18.3331 19.3041 18.3089 19.2718C18.2525 19.2074 18.18 19.1187 18.0832 19.0059C17.8818 18.7722 17.5997 18.474 17.2612 18.1032C16.552 17.5471 15.738 17.0475 15.0287 17.0475C14.3195 17.0475 13.5055 17.5471 12.7963 18.1032C12.4578 18.474 12.1757 18.7722 11.9742 19.0059C11.8775 19.1187 11.7325 19.2074 11.7486 19.2718C11.6519 19.3041 11.7083 19.3283 11.6922 19.3444L11.676 19.3686C11.5068 19.5942 11.2167 19.6829 10.9588 19.5942C10.6928 19.5056 10.5155 19.2557 10.5155 18.9817C10.5155 17.5391 11.0555 16.1126 11.8533 15.0487C12.6432 14.001 13.7795 13.179 15.0287 13.179C16.2779 13.179 17.4143 14.001 18.2041 15.0487C19.002 16.1126 19.542 17.5391 19.542 18.9817C19.542 19.2557 19.3647 19.5056 19.0987 19.5942C18.8408 19.6829 18.5507 19.5942 18.3814 19.3686ZM31.2764 19.3686L31.2603 19.3444C31.2442 19.3283 31.2281 19.3041 31.2039 19.2718C31.1475 19.2074 31.0749 19.1187 30.9782 19.0059C30.7768 18.7722 30.4947 18.474 30.1562 18.1032C29.447 17.5471 28.633 17.0475 27.9237 17.0475C27.2145 17.0475 26.4005 17.5471 25.6913 18.1032C25.3528 18.474 25.0707 18.7722 24.8692 19.0059C24.7725 19.1187 24.6274 19.2074 24.6436 19.2718C24.5469 19.3041 24.6033 19.3283 24.5872 19.3444L24.571 19.3686C24.4018 19.5942 24.1117 19.6829 23.8538 19.5942C23.5878 19.5056 23.4105 19.2557 23.4105 18.9817C23.4105 17.5391 23.9505 16.1126 24.7483 15.0487C25.5382 14.001 26.6745 13.179 27.9237 13.179C29.1729 13.179 30.3093 14.001 31.0991 15.0487C31.897 16.1126 32.437 17.5391 32.437 18.9817C32.437 19.2557 32.2597 19.5056 31.9937 19.5942C31.7358 19.6829 31.4457 19.5942 31.2764 19.3686ZM42.1082 21.5607C42.1082 32.9567 32.8722 42.1927 21.4762 42.1927C10.0803 42.1927 0.844238 32.9567 0.844238 21.5607C0.844238 10.1648 10.0803 0.928711 21.4762 0.928711C32.8722 0.928711 42.1082 10.1648 42.1082 21.5607ZM21.4762 4.79721C12.216 4.79721 4.71274 12.3005 4.71274 21.5607C4.71274 30.8209 12.216 38.3242 21.4762 38.3242C30.7365 38.3242 38.2397 30.8209 38.2397 21.5607C38.2397 12.3005 30.7365 4.79721 21.4762 4.79721Z" fill="#0CBC8B"/>
</svg>
