<svg width="106" height="112" viewBox="0 0 106 112" fill="none" xmlns="http://www.w3.org/2000/svg">
<path d="M82.5311 27.6675V3.0625H68.9686V15.1944L53.2055 0.796249L0.254883 48.1906L8.30488 57.2644L16.4686 49.8925V111.125H89.5311V50.3475L97.5636 57.7194L105.828 48.8731L82.5311 27.6675ZM42.2024 88.375H32.6955V66.8106H42.2024V88.375ZM73.3043 84.5688C73.3043 86.835 71.1343 89.005 68.8636 89.005H55.5461C52.7724 89.005 50.528 88.655 47.9293 87.745C47.1243 87.4694 44.753 86.485 44.753 86.485V68.7269L55.218 56.4156L56.1761 50.9425H58.0705C60.188 50.9425 61.6536 52.6356 61.6536 54.7269V55.9125C61.6536 58.6119 61.5005 61.3375 61.1724 64.0106L61.0718 64.8944H68.8636C71.1343 64.8944 73.3043 67.06 73.3043 69.3306V84.5688Z" fill="#E98862"/>
</svg>
