<svg width="54" height="55" viewBox="0 0 54 55" fill="none" xmlns="http://www.w3.org/2000/svg">
<path d="M8.34277 22.8428V47.455C8.34277 47.8975 8.51857 48.3219 8.8315 48.6349C9.14443 48.9478 9.56885 49.1236 10.0114 49.1236H20.0231V34.9403C20.0231 34.2765 20.2868 33.6398 20.7562 33.1705C21.2256 32.7011 21.8623 32.4374 22.5261 32.4374H30.8692C31.533 32.4374 32.1696 32.7011 32.639 33.1705C33.1084 33.6398 33.3721 34.2765 33.3721 34.9403V49.1236H43.3839C43.8264 49.1236 44.2508 48.9478 44.5638 48.6349C44.8767 48.3219 45.0525 47.8975 45.0525 47.455V22.8428" stroke="#222D39" stroke-width="3.2302" stroke-linecap="round" stroke-linejoin="round"/>
<path d="M41.7153 19.4009V7.40771H36.7095V14.6037" stroke="#E98862" stroke-width="3.2302" stroke-linecap="round" stroke-linejoin="round"/>
<path d="M50.0584 27.431L27.8333 6.15606C27.3119 5.60541 26.0928 5.59915 25.5619 6.15606L3.33691 27.431" stroke="#222D39" stroke-width="3.2302" stroke-linecap="round" stroke-linejoin="round"/>
</svg>
