<svg width="57" height="56" viewBox="0 0 57 56" fill="none" xmlns="http://www.w3.org/2000/svg">
<path d="M49.776 12.3397L28.776 5.33972C28.4168 5.22009 28.0285 5.22009 27.6693 5.33972L6.70288 12.3285L6.70075 12.3293L6.66926 12.3397C6.6631 12.3418 6.65767 12.3451 6.65154 12.3473C6.57575 12.3734 6.50188 12.4047 6.43044 12.441C6.42224 12.4452 6.41372 12.4487 6.4056 12.453C6.33483 12.4908 6.26676 12.5334 6.20186 12.5806C6.18755 12.5908 6.17364 12.6014 6.15967 12.6121C6.09655 12.6599 6.03672 12.7118 5.98057 12.7677C5.97537 12.7729 5.97085 12.7787 5.96573 12.784C5.91393 12.8379 5.86563 12.8952 5.82113 12.9553C5.81203 12.9675 5.8026 12.9793 5.79384 12.9918C5.74791 13.0567 5.70646 13.1246 5.66978 13.1952C5.66412 13.2061 5.65926 13.2172 5.65381 13.2282C5.61958 13.2974 5.58997 13.3687 5.56518 13.4417C5.56286 13.4486 5.55998 13.4552 5.55773 13.4621C5.53303 13.5398 5.51382 13.6191 5.50024 13.6995C5.49733 13.7163 5.49498 13.733 5.49259 13.7498C5.47999 13.8326 5.47333 13.9162 5.47266 14V31.5C5.47266 31.9641 5.65703 32.4092 5.98522 32.7374C6.31341 33.0656 6.75853 33.25 7.22266 33.25C7.68679 33.25 8.1319 33.0656 8.46009 32.7374C8.78828 32.4092 8.97266 31.9641 8.97266 31.5V16.4281L16.3194 18.877C14.3718 22.0219 13.7485 25.81 14.586 29.413C15.4234 33.0161 17.6534 36.141 20.7884 38.1046C16.6139 39.6831 13.0519 42.5519 10.62 46.294C10.4942 46.4865 10.4076 46.7019 10.3651 46.9279C10.3226 47.1539 10.3251 47.3861 10.3724 47.6111C10.4196 47.8362 10.5108 48.0497 10.6407 48.2395C10.7705 48.4293 10.9365 48.5916 11.1291 48.7172C11.3218 48.8428 11.5373 48.9292 11.7633 48.9714C11.9894 49.0137 12.2215 49.011 12.4465 48.9635C12.6715 48.916 12.8849 48.8246 13.0746 48.6945C13.2642 48.5644 13.4264 48.3983 13.5518 48.2055C15.1416 45.763 17.3162 43.7561 19.8781 42.3669C22.44 40.9776 25.3083 40.25 28.2226 40.25C31.137 40.25 34.0052 40.9776 36.5671 42.3669C39.129 43.7561 41.3036 45.763 42.8934 48.2055C43.0189 48.398 43.1811 48.5639 43.3708 48.6937C43.5604 48.8236 43.7737 48.9148 43.9986 48.9621C44.2235 49.0095 44.4555 49.0121 44.6813 48.9698C44.9072 48.9275 45.1226 48.8412 45.3151 48.7157C45.5076 48.5902 45.6735 48.428 45.8033 48.2383C45.9331 48.0487 46.0243 47.8354 46.0717 47.6105C46.119 47.3856 46.1217 47.1536 46.0794 46.9278C46.0371 46.7019 45.9507 46.4865 45.8252 46.294C43.3934 42.5519 39.8313 39.6831 35.657 38.1046C38.7919 36.1411 41.0219 33.0161 41.8593 29.4131C42.6968 25.81 42.0735 22.0219 40.1259 18.877L49.776 15.6603C50.1245 15.5441 50.4276 15.3213 50.6423 15.0233C50.8571 14.7253 50.9727 14.3673 50.9727 14C50.9727 13.6327 50.8571 13.2747 50.6423 12.9767C50.4276 12.6787 50.1245 12.4559 49.776 12.3397ZM28.2227 36.75C26.2806 36.7503 24.3766 36.212 22.7223 35.1948C21.0679 34.1777 19.7282 32.7216 18.8519 30.9885C17.9757 29.2554 17.5974 27.3132 17.7591 25.3779C17.9208 23.4426 18.6161 21.5901 19.7677 20.0264L27.6693 22.6603C28.0285 22.7799 28.4168 22.7799 28.776 22.6603L36.6776 20.0264C37.8292 21.5901 38.5245 23.4426 38.6862 25.3779C38.8479 27.3132 38.4696 29.2554 37.5934 30.9885C36.7172 32.7216 35.3774 34.1777 33.7231 35.1948C32.0687 36.212 30.1647 36.7503 28.2227 36.75Z" fill="black"/>
<path d="M28.2227 36.75C26.2806 36.7503 24.3766 36.212 22.7223 35.1948C21.0679 34.1777 19.7282 32.7216 18.8519 30.9885C17.9757 29.2554 17.5974 27.3132 17.7591 25.3779C17.9208 23.4426 18.6161 21.5901 19.7677 20.0264L27.6693 22.6603C28.0285 22.7799 28.4168 22.7799 28.776 22.6603L36.6776 20.0264C37.8292 21.5901 38.5245 23.4426 38.6862 25.3779C38.8479 27.3132 38.4696 29.2554 37.5934 30.9885C36.7172 32.7216 35.3774 34.1777 33.7231 35.1948C32.0687 36.212 30.1647 36.7503 28.2227 36.75Z" fill="#0CBC8B"/>
</svg>
