<svg width="44" height="44" viewBox="0 0 44 44" fill="none" xmlns="http://www.w3.org/2000/svg">
<g clip-path="url(#clip0_23_620)">
<path d="M33.8798 17.9722L31.7696 21.9463L27.2563 22.4947L30.5681 25.4792L29.9057 29.8945L33.8798 27.4107L37.8539 29.8945L37.1916 25.4792L40.5033 22.4947L35.8669 21.9463L33.8798 17.9722Z" fill="#0CBC8B"/>
<path d="M29.1295 18.5201L33.8798 13.7776L38.6315 18.5227L40.5033 16.6469L33.8798 10.0234L27.2563 16.6469L29.1295 18.5201Z" fill="#E98862"/>
<path d="M29.1295 11.897L33.8798 7.15459L38.6315 11.8997L40.5033 10.0239L33.8798 3.40039L27.2563 10.0239L29.1295 11.897Z" fill="#E98862"/>
<path d="M21.9574 40.4921H19.308V33.8686C19.3069 32.815 18.8878 31.8048 18.1427 31.0598C17.3977 30.3147 16.3876 29.8957 15.3339 29.8945H10.0351C8.98148 29.8957 7.97132 30.3147 7.22628 31.0598C6.48125 31.8048 6.06218 32.815 6.06102 33.8686V40.4921H3.41162V33.8686C3.41369 32.1126 4.11218 30.4291 5.35388 29.1874C6.59558 27.9457 8.27909 27.2472 10.0351 27.2451H15.3339C17.0899 27.2472 18.7735 27.9457 20.0152 29.1874C21.2568 30.4291 21.9553 32.1126 21.9574 33.8686V40.4921Z" fill="#222D39"/>
<path d="M12.6845 13.9973C13.4705 13.9973 14.2389 14.2304 14.8924 14.6671C15.546 15.1037 16.0553 15.7244 16.3561 16.4506C16.6569 17.1767 16.7356 17.9758 16.5823 18.7467C16.4289 19.5176 16.0504 20.2257 15.4946 20.7815C14.9389 21.3373 14.2307 21.7158 13.4598 21.8691C12.6889 22.0225 11.8899 21.9438 11.1637 21.643C10.4375 21.3422 9.81687 20.8328 9.38019 20.1793C8.94351 19.5258 8.71044 18.7574 8.71044 17.9714C8.71044 16.9174 9.12914 15.9066 9.87442 15.1613C10.6197 14.416 11.6305 13.9973 12.6845 13.9973ZM12.6845 11.3479C11.3745 11.3479 10.0939 11.7364 9.00472 12.4642C7.91549 13.192 7.06654 14.2264 6.56522 15.4367C6.06391 16.647 5.93274 17.9787 6.18831 19.2636C6.44388 20.5484 7.0747 21.7286 8.00102 22.6549C8.92733 23.5812 10.1075 24.2121 11.3924 24.4676C12.6772 24.7232 14.009 24.592 15.2192 24.0907C16.4295 23.5894 17.464 22.7404 18.1918 21.6512C18.9196 20.562 19.308 19.2814 19.308 17.9714C19.308 17.1016 19.1367 16.2403 18.8039 15.4367C18.471 14.6331 17.9831 13.9029 17.3681 13.2879C16.753 12.6728 16.0228 12.1849 15.2192 11.8521C14.4156 11.5192 13.5543 11.3479 12.6845 11.3479Z" fill="#222D39"/>
</g>
<defs>
<clipPath id="clip0_23_620">
<rect width="42.3904" height="42.3904" fill="white" transform="translate(0.762207 0.750732)"/>
</clipPath>
</defs>
</svg>
