<svg width="40" height="42" viewBox="0 0 40 42" fill="none" xmlns="http://www.w3.org/2000/svg">
<g clip-path="url(#clip0_21_270)">
<path d="M6.85611 41.5903H33.718V28.7238H6.85611V41.5903ZM23.2043 30.697C23.4983 30.697 23.7577 30.8612 23.8874 31.0948C23.9048 31.1207 23.922 31.1467 23.9479 31.1726C24.1036 31.3283 24.3543 31.3283 24.5013 31.1726C24.5272 31.1467 24.5446 31.1207 24.5618 31.0948C24.4668 31.7606 23.8959 32.2708 23.2041 32.2708C22.7717 32.2708 22.4172 31.9163 22.4172 31.484C22.4172 31.0517 22.7719 30.697 23.2043 30.697ZM21.5094 33.317C21.5785 32.8414 21.985 32.4696 22.4865 32.4696H23.9913C24.4841 32.4696 24.8993 32.8414 24.9685 33.317L25.2712 35.8245C25.2971 36.0148 25.1587 36.1877 24.9685 36.205C24.7782 36.2309 24.6053 36.0926 24.588 35.9023L24.3027 33.5764C24.294 33.5331 24.2507 33.4986 24.2076 33.4986C24.1557 33.4986 24.1126 33.5418 24.1126 33.5936C24.1126 33.6023 24.1126 33.6108 24.1126 33.6108C24.1126 33.6108 24.3115 35.2624 24.3201 35.297C24.3288 35.3402 24.3288 35.3835 24.3288 35.4266V39.6203C24.3288 39.9143 24.1126 40.1563 23.8359 40.1563C23.5678 40.1563 23.3431 39.9143 23.3431 39.6203V36.2049C23.3431 36.1529 23.2998 36.1098 23.248 36.1098C23.196 36.1098 23.1529 36.1531 23.1529 36.2049V39.6116C23.1529 39.9056 22.9368 40.1476 22.6601 40.1476C22.392 40.1476 22.1672 39.9056 22.1672 39.6116V35.4181C22.1672 35.3748 22.1672 35.3316 22.1759 35.2884C22.1759 35.2539 22.3834 33.6023 22.3834 33.6023C22.3834 33.6023 22.3834 33.5936 22.3834 33.5851C22.3834 33.5331 22.3402 33.49 22.2884 33.49C22.2366 33.49 22.2018 33.5246 22.1933 33.5679L21.9166 35.8938C21.8821 36.0928 21.7092 36.2311 21.5189 36.205C21.3286 36.1791 21.1989 36.0148 21.2161 35.8245L21.5094 33.317ZM20.206 36.473C20.4592 36.473 20.6643 36.6782 20.6643 36.9312C20.6643 37.1842 20.459 37.3894 20.206 37.3894C19.9528 37.3894 19.7477 37.1842 19.7477 36.9312C19.7477 36.6782 19.9528 36.473 20.206 36.473ZM19.3152 37.9689C19.2893 37.7268 19.4795 37.5192 19.7217 37.5107H20.6902C20.9322 37.5193 21.1312 37.7268 21.1312 37.9689V38.6001C21.1312 38.6952 21.0534 38.7643 20.9583 38.7643C20.8632 38.7643 20.7854 38.6865 20.7854 38.6001V38.0728C20.7854 38.0382 20.7595 38.0208 20.7249 38.0208C20.6903 38.0208 20.673 38.0467 20.673 38.0728V39.949C20.673 40.0614 20.5864 40.148 20.474 40.148C20.3615 40.148 20.275 40.0614 20.275 39.949V38.9979C20.275 38.9633 20.2491 38.9459 20.2231 38.9459C20.1885 38.9459 20.1711 38.9718 20.1711 38.9979V39.949C20.1711 40.0614 20.0846 40.148 19.9721 40.148C19.8597 40.148 19.7732 40.0614 19.7732 39.949V38.0728C19.7732 38.0382 19.7473 38.0208 19.7212 38.0208C19.6866 38.0208 19.6607 38.0467 19.6607 38.0728V38.6001C19.6607 38.6952 19.5829 38.7643 19.4878 38.7643C19.3928 38.7643 19.3149 38.6865 19.3149 38.6001L19.3152 37.9689ZM17.2634 30.6538C17.698 30.6538 18.0503 31.006 18.0503 31.4406C18.0503 31.8751 17.698 32.2273 17.2634 32.2273C16.8288 32.2273 16.4765 31.8751 16.4765 31.4406C16.4765 31.006 16.8288 30.6538 17.2634 30.6538ZM16.2689 32.435H18.2406C18.7854 32.435 19.2264 32.876 19.2264 33.4207V35.8332C19.2264 36.0234 19.0707 36.179 18.8804 36.179C18.6816 36.179 18.5346 36.0233 18.5346 35.8332V33.6195C18.5346 33.5676 18.4913 33.5245 18.4396 33.5245C18.3876 33.5245 18.3445 33.5677 18.3445 33.6195V39.6116C18.3445 39.9056 18.1283 40.1476 17.8516 40.1476C17.575 40.1476 17.3588 39.9056 17.3588 39.6116V36.1962C17.3588 36.1442 17.3155 36.1011 17.2637 36.1011C17.2118 36.1011 17.1687 36.1444 17.1687 36.1962V39.6116C17.1687 39.9056 16.9525 40.1476 16.6758 40.1476C16.3992 40.1476 16.183 39.9056 16.183 39.6116V33.6195C16.183 33.5676 16.1397 33.5245 16.0879 33.5245C16.0361 33.5245 15.9929 33.5677 15.9929 33.6195V35.8417C15.9929 36.032 15.8372 36.1875 15.647 36.1875C15.4481 36.1875 15.3011 36.0318 15.3011 35.8417V33.4207C15.2832 32.876 15.7328 32.435 16.2689 32.435ZM36.6714 21.9568L39.7091 18.7055L31.1444 10.9105V1.865H26.1581V6.32517L20.3633 1.03125L0.894531 18.4554L3.85449 21.7901L6.85611 19.0807V25.9897H33.718V19.2475L36.6714 21.9568ZM22.8826 15.0964C23.1766 15.0964 23.436 15.2606 23.5657 15.4942C23.5831 15.52 23.6003 15.5461 23.6262 15.572C23.7819 15.7277 24.0326 15.7277 24.1796 15.572C24.2055 15.5461 24.2229 15.52 24.2401 15.4942C24.1451 16.16 23.5742 16.6701 22.8824 16.6701C22.45 16.6701 22.0955 16.3157 22.0955 15.8834C22.0955 15.451 22.4502 15.0964 22.8826 15.0964ZM19.8843 20.8723C20.1375 20.8723 20.3426 21.0776 20.3426 21.3306C20.3426 21.5835 20.1373 21.7888 19.8843 21.7888C19.6311 21.7888 19.426 21.5835 19.426 21.3306C19.426 21.0776 19.6311 20.8723 19.8843 20.8723ZM16.9417 15.0532C17.3763 15.0532 17.7286 15.4054 17.7286 15.8399C17.7286 16.2745 17.3763 16.6267 16.9417 16.6267C16.5071 16.6267 16.1548 16.2745 16.1548 15.8399C16.1548 15.4054 16.5071 15.0532 16.9417 15.0532ZM18.9047 20.2324C18.9047 20.4227 18.749 20.5782 18.5587 20.5782C18.3599 20.5782 18.2129 20.4225 18.2129 20.2324V18.0189C18.2129 17.9669 18.1696 17.9238 18.1179 17.9238C18.0659 17.9238 18.0228 17.9671 18.0228 18.0189V24.011C18.0228 24.305 17.8066 24.547 17.5299 24.547C17.2533 24.547 17.0371 24.305 17.0371 24.011V20.5956C17.0371 20.5436 16.9938 20.5005 16.942 20.5005C16.8901 20.5005 16.847 20.5438 16.847 20.5956V24.011C16.847 24.305 16.6308 24.547 16.3541 24.547C16.0775 24.547 15.8613 24.305 15.8613 24.011V18.0189C15.8613 17.9669 15.818 17.9238 15.7662 17.9238C15.7144 17.9238 15.6712 17.9671 15.6712 18.0189V20.2411C15.6712 20.4313 15.5155 20.5869 15.3253 20.5869C15.1264 20.5869 14.9794 20.4312 14.9794 20.2411V17.8201C14.962 17.2754 15.4117 16.8344 15.9478 16.8344H17.9195C18.4643 16.8344 18.9054 17.2754 18.9054 17.8201L18.9047 20.2324ZM20.8095 22.9993C20.8095 23.0944 20.7317 23.1635 20.6366 23.1635C20.5415 23.1635 20.4637 23.0857 20.4637 22.9993V22.472C20.4637 22.4374 20.4378 22.42 20.4032 22.42C20.3686 22.42 20.3513 22.4459 20.3513 22.472V24.3482C20.3513 24.4607 20.2647 24.5472 20.1523 24.5472C20.0399 24.5472 19.9533 24.4607 19.9533 24.3482V23.3971C19.9533 23.3625 19.9274 23.3451 19.9014 23.3451C19.8668 23.3451 19.8494 23.371 19.8494 23.3971V24.3482C19.8494 24.4607 19.7629 24.5472 19.6504 24.5472C19.538 24.5472 19.4515 24.4607 19.4515 24.3482V22.472C19.4515 22.4374 19.4256 22.42 19.3995 22.42C19.3649 22.42 19.339 22.4459 19.339 22.472V22.9993C19.339 23.0944 19.2612 23.1635 19.1661 23.1635C19.0711 23.1635 18.9932 23.0857 18.9932 22.9993V22.3681C18.9673 22.126 19.1574 21.9184 19.3997 21.9099H20.3681C20.6102 21.9186 20.8092 22.126 20.8092 22.3681L20.8095 22.9993ZM24.6468 20.6042C24.4565 20.6301 24.2836 20.4918 24.2663 20.3016L23.981 17.9756C23.9723 17.9324 23.929 17.8978 23.8859 17.8978C23.834 17.8978 23.7909 17.941 23.7909 17.9928C23.7909 18.0015 23.7909 18.01 23.7909 18.01C23.7909 18.01 23.9898 19.6616 23.9984 19.6962C24.0071 19.7395 24.0071 19.7827 24.0071 19.8258V24.0195C24.0071 24.3135 23.7909 24.5555 23.5142 24.5555C23.2461 24.5555 23.0214 24.3135 23.0214 24.0195V20.6041C23.0214 20.5521 22.9781 20.509 22.9263 20.509C22.8743 20.509 22.8312 20.5523 22.8312 20.6041V24.0108C22.8312 24.3048 22.6151 24.5469 22.3384 24.5469C22.0703 24.5469 21.8456 24.3048 21.8456 24.0108V19.8173C21.8456 19.774 21.8456 19.7308 21.8542 19.6877C21.8542 19.6531 22.0617 18.0015 22.0617 18.0015C22.0617 18.0015 22.0617 17.9928 22.0617 17.9843C22.0617 17.9324 22.0185 17.8892 21.9667 17.8892C21.9149 17.8892 21.8801 17.9238 21.8716 17.9671L21.5949 20.293C21.5604 20.492 21.3875 20.6303 21.1972 20.6042C21.0069 20.5783 20.8772 20.414 20.8944 20.2237L21.1885 17.7162C21.2576 17.2406 21.6641 16.8688 22.1656 16.8688H23.6704C24.1632 16.8688 24.5784 17.2406 24.6476 17.7162L24.9503 20.2237C24.9754 20.414 24.837 20.587 24.6468 20.6042Z" fill="#222D39"/>
<path d="M6.85611 41.5903H33.718V28.7238H6.85611V41.5903ZM23.2043 30.697C23.4983 30.697 23.7577 30.8612 23.8874 31.0948C23.9048 31.1207 23.922 31.1467 23.9479 31.1726C24.1036 31.3283 24.3543 31.3283 24.5013 31.1726C24.5272 31.1467 24.5446 31.1207 24.5618 31.0948C24.4668 31.7606 23.8959 32.2708 23.2041 32.2708C22.7717 32.2708 22.4172 31.9163 22.4172 31.484C22.4172 31.0517 22.7719 30.697 23.2043 30.697ZM21.5094 33.317C21.5785 32.8414 21.985 32.4696 22.4865 32.4696H23.9913C24.4841 32.4696 24.8993 32.8414 24.9685 33.317L25.2712 35.8245C25.2971 36.0148 25.1587 36.1877 24.9685 36.205C24.7782 36.2309 24.6053 36.0926 24.588 35.9023L24.3027 33.5764C24.294 33.5331 24.2507 33.4986 24.2076 33.4986C24.1557 33.4986 24.1126 33.5418 24.1126 33.5936C24.1126 33.6023 24.1126 33.6108 24.1126 33.6108C24.1126 33.6108 24.3115 35.2624 24.3201 35.297C24.3288 35.3402 24.3288 35.3835 24.3288 35.4266V39.6203C24.3288 39.9143 24.1126 40.1563 23.8359 40.1563C23.5678 40.1563 23.3431 39.9143 23.3431 39.6203V36.2049C23.3431 36.1529 23.2998 36.1098 23.248 36.1098C23.196 36.1098 23.1529 36.1531 23.1529 36.2049V39.6116C23.1529 39.9056 22.9368 40.1476 22.6601 40.1476C22.392 40.1476 22.1672 39.9056 22.1672 39.6116V35.4181C22.1672 35.3748 22.1672 35.3316 22.1759 35.2884C22.1759 35.2539 22.3834 33.6023 22.3834 33.6023C22.3834 33.6023 22.3834 33.5936 22.3834 33.5851C22.3834 33.5331 22.3402 33.49 22.2884 33.49C22.2366 33.49 22.2018 33.5246 22.1933 33.5679L21.9166 35.8938C21.8821 36.0928 21.7092 36.2311 21.5189 36.205C21.3286 36.1791 21.1989 36.0148 21.2161 35.8245L21.5094 33.317ZM20.206 36.473C20.4592 36.473 20.6643 36.6782 20.6643 36.9312C20.6643 37.1842 20.459 37.3894 20.206 37.3894C19.9528 37.3894 19.7477 37.1842 19.7477 36.9312C19.7477 36.6782 19.9528 36.473 20.206 36.473ZM19.3152 37.9689C19.2893 37.7268 19.4795 37.5192 19.7217 37.5107H20.6902C20.9322 37.5193 21.1312 37.7268 21.1312 37.9689V38.6001C21.1312 38.6952 21.0534 38.7643 20.9583 38.7643C20.8632 38.7643 20.7854 38.6865 20.7854 38.6001V38.0728C20.7854 38.0382 20.7595 38.0208 20.7249 38.0208C20.6903 38.0208 20.673 38.0467 20.673 38.0728V39.949C20.673 40.0614 20.5864 40.148 20.474 40.148C20.3615 40.148 20.275 40.0614 20.275 39.949V38.9979C20.275 38.9633 20.2491 38.9459 20.2231 38.9459C20.1885 38.9459 20.1711 38.9718 20.1711 38.9979V39.949C20.1711 40.0614 20.0846 40.148 19.9721 40.148C19.8597 40.148 19.7732 40.0614 19.7732 39.949V38.0728C19.7732 38.0382 19.7473 38.0208 19.7212 38.0208C19.6866 38.0208 19.6607 38.0467 19.6607 38.0728V38.6001C19.6607 38.6952 19.5829 38.7643 19.4878 38.7643C19.3928 38.7643 19.3149 38.6865 19.3149 38.6001L19.3152 37.9689ZM17.2634 30.6538C17.698 30.6538 18.0503 31.006 18.0503 31.4406C18.0503 31.8751 17.698 32.2273 17.2634 32.2273C16.8288 32.2273 16.4765 31.8751 16.4765 31.4406C16.4765 31.006 16.8288 30.6538 17.2634 30.6538ZM16.2689 32.435H18.2406C18.7854 32.435 19.2264 32.876 19.2264 33.4207V35.8332C19.2264 36.0234 19.0707 36.179 18.8804 36.179C18.6816 36.179 18.5346 36.0233 18.5346 35.8332V33.6195C18.5346 33.5676 18.4913 33.5245 18.4396 33.5245C18.3876 33.5245 18.3445 33.5677 18.3445 33.6195V39.6116C18.3445 39.9056 18.1283 40.1476 17.8516 40.1476C17.575 40.1476 17.3588 39.9056 17.3588 39.6116V36.1962C17.3588 36.1442 17.3155 36.1011 17.2637 36.1011C17.2118 36.1011 17.1687 36.1444 17.1687 36.1962V39.6116C17.1687 39.9056 16.9525 40.1476 16.6758 40.1476C16.3992 40.1476 16.183 39.9056 16.183 39.6116V33.6195C16.183 33.5676 16.1397 33.5245 16.0879 33.5245C16.0361 33.5245 15.9929 33.5677 15.9929 33.6195V35.8417C15.9929 36.032 15.8372 36.1875 15.647 36.1875C15.4481 36.1875 15.3011 36.0318 15.3011 35.8417V33.4207C15.2832 32.876 15.7328 32.435 16.2689 32.435ZM36.6714 21.9568L39.7091 18.7055L31.1444 10.9105V1.865H26.1581V6.32517L20.3633 1.03125L0.894531 18.4554L3.85449 21.7901L6.85611 19.0807V25.9897H33.718V19.2475L36.6714 21.9568ZM22.8826 15.0964C23.1766 15.0964 23.436 15.2606 23.5657 15.4942C23.5831 15.52 23.6003 15.5461 23.6262 15.572C23.7819 15.7277 24.0326 15.7277 24.1796 15.572C24.2055 15.5461 24.2229 15.52 24.2401 15.4942C24.1451 16.16 23.5742 16.6701 22.8824 16.6701C22.45 16.6701 22.0955 16.3157 22.0955 15.8834C22.0955 15.451 22.4502 15.0964 22.8826 15.0964ZM19.8843 20.8723C20.1375 20.8723 20.3426 21.0776 20.3426 21.3306C20.3426 21.5835 20.1373 21.7888 19.8843 21.7888C19.6311 21.7888 19.426 21.5835 19.426 21.3306C19.426 21.0776 19.6311 20.8723 19.8843 20.8723ZM16.9417 15.0532C17.3763 15.0532 17.7286 15.4054 17.7286 15.8399C17.7286 16.2745 17.3763 16.6267 16.9417 16.6267C16.5071 16.6267 16.1548 16.2745 16.1548 15.8399C16.1548 15.4054 16.5071 15.0532 16.9417 15.0532ZM18.9047 20.2324C18.9047 20.4227 18.749 20.5782 18.5587 20.5782C18.3599 20.5782 18.2129 20.4225 18.2129 20.2324V18.0189C18.2129 17.9669 18.1696 17.9238 18.1179 17.9238C18.0659 17.9238 18.0228 17.9671 18.0228 18.0189V24.011C18.0228 24.305 17.8066 24.547 17.5299 24.547C17.2533 24.547 17.0371 24.305 17.0371 24.011V20.5956C17.0371 20.5436 16.9938 20.5005 16.942 20.5005C16.8901 20.5005 16.847 20.5438 16.847 20.5956V24.011C16.847 24.305 16.6308 24.547 16.3541 24.547C16.0775 24.547 15.8613 24.305 15.8613 24.011V18.0189C15.8613 17.9669 15.818 17.9238 15.7662 17.9238C15.7144 17.9238 15.6712 17.9671 15.6712 18.0189V20.2411C15.6712 20.4313 15.5155 20.5869 15.3253 20.5869C15.1264 20.5869 14.9794 20.4312 14.9794 20.2411V17.8201C14.962 17.2754 15.4117 16.8344 15.9478 16.8344H17.9195C18.4643 16.8344 18.9054 17.2754 18.9054 17.8201L18.9047 20.2324ZM20.8095 22.9993C20.8095 23.0944 20.7317 23.1635 20.6366 23.1635C20.5415 23.1635 20.4637 23.0857 20.4637 22.9993V22.472C20.4637 22.4374 20.4378 22.42 20.4032 22.42C20.3686 22.42 20.3513 22.4459 20.3513 22.472V24.3482C20.3513 24.4607 20.2647 24.5472 20.1523 24.5472C20.0399 24.5472 19.9533 24.4607 19.9533 24.3482V23.3971C19.9533 23.3625 19.9274 23.3451 19.9014 23.3451C19.8668 23.3451 19.8494 23.371 19.8494 23.3971V24.3482C19.8494 24.4607 19.7629 24.5472 19.6504 24.5472C19.538 24.5472 19.4515 24.4607 19.4515 24.3482V22.472C19.4515 22.4374 19.4256 22.42 19.3995 22.42C19.3649 22.42 19.339 22.4459 19.339 22.472V22.9993C19.339 23.0944 19.2612 23.1635 19.1661 23.1635C19.0711 23.1635 18.9932 23.0857 18.9932 22.9993V22.3681C18.9673 22.126 19.1574 21.9184 19.3997 21.9099H20.3681C20.6102 21.9186 20.8092 22.126 20.8092 22.3681L20.8095 22.9993ZM24.6468 20.6042C24.4565 20.6301 24.2836 20.4918 24.2663 20.3016L23.981 17.9756C23.9723 17.9324 23.929 17.8978 23.8859 17.8978C23.834 17.8978 23.7909 17.941 23.7909 17.9928C23.7909 18.0015 23.7909 18.01 23.7909 18.01C23.7909 18.01 23.9898 19.6616 23.9984 19.6962C24.0071 19.7395 24.0071 19.7827 24.0071 19.8258V24.0195C24.0071 24.3135 23.7909 24.5555 23.5142 24.5555C23.2461 24.5555 23.0214 24.3135 23.0214 24.0195V20.6041C23.0214 20.5521 22.9781 20.509 22.9263 20.509C22.8743 20.509 22.8312 20.5523 22.8312 20.6041V24.0108C22.8312 24.3048 22.6151 24.5469 22.3384 24.5469C22.0703 24.5469 21.8456 24.3048 21.8456 24.0108V19.8173C21.8456 19.774 21.8456 19.7308 21.8542 19.6877C21.8542 19.6531 22.0617 18.0015 22.0617 18.0015C22.0617 18.0015 22.0617 17.9928 22.0617 17.9843C22.0617 17.9324 22.0185 17.8892 21.9667 17.8892C21.9149 17.8892 21.8801 17.9238 21.8716 17.9671L21.5949 20.293C21.5604 20.492 21.3875 20.6303 21.1972 20.6042C21.0069 20.5783 20.8772 20.414 20.8944 20.2237L21.1885 17.7162C21.2576 17.2406 21.6641 16.8688 22.1656 16.8688H23.6704C24.1632 16.8688 24.5784 17.2406 24.6476 17.7162L24.9503 20.2237C24.9754 20.414 24.837 20.587 24.6468 20.6042Z" fill="#222D39"/>
<path d="M6.85645 41.5901H33.7184V28.7236H6.85645V41.5901ZM23.2046 30.6969C23.4986 30.6969 23.7581 30.8611 23.8877 31.0946C23.9051 31.1205 23.9223 31.1466 23.9482 31.1724C24.1039 31.3281 24.3547 31.3281 24.5017 31.1724C24.5276 31.1466 24.5449 31.1205 24.5622 31.0946C24.4671 31.7604 23.8962 32.2706 23.2044 32.2706C22.7721 32.2706 22.4175 31.9161 22.4175 31.4838C22.4175 31.0515 22.7722 30.6969 23.2046 30.6969ZM21.5097 33.3168C21.5789 32.8412 21.9853 32.4694 22.4869 32.4694H23.9916C24.4845 32.4694 24.8996 32.8412 24.9688 33.3168L25.2715 35.8243C25.2974 36.0146 25.1591 36.1875 24.9688 36.2049C24.7785 36.2307 24.6056 36.0924 24.5884 35.9022L24.303 33.5762C24.2943 33.533 24.2511 33.4984 24.208 33.4984C24.156 33.4984 24.1129 33.5417 24.1129 33.5934C24.1129 33.6021 24.1129 33.6106 24.1129 33.6106C24.1129 33.6106 24.3119 35.2622 24.3204 35.2968C24.3291 35.3401 24.3291 35.3833 24.3291 35.4264V39.6201C24.3291 39.9141 24.1129 40.1562 23.8362 40.1562C23.5681 40.1562 23.3434 39.9141 23.3434 39.6201V36.2047C23.3434 36.1527 23.3001 36.1096 23.2483 36.1096C23.1964 36.1096 23.1533 36.1529 23.1533 36.2047V39.6114C23.1533 39.9054 22.9371 40.1475 22.6604 40.1475C22.3923 40.1475 22.1676 39.9054 22.1676 39.6114V35.4179C22.1676 35.3746 22.1676 35.3314 22.1763 35.2883C22.1763 35.2537 22.3838 33.6021 22.3838 33.6021C22.3838 33.6021 22.3838 33.5934 22.3838 33.5849C22.3838 33.533 22.3405 33.4899 22.2887 33.4899C22.2369 33.4899 22.2022 33.5244 22.1936 33.5677L21.917 35.8936C21.8824 36.0926 21.7095 36.2309 21.5192 36.2049C21.3289 36.179 21.1993 36.0146 21.2165 35.8243L21.5097 33.3168ZM20.2063 36.4728C20.4595 36.4728 20.6646 36.678 20.6646 36.931C20.6646 37.184 20.4594 37.3892 20.2063 37.3892C19.9532 37.3892 19.7481 37.184 19.7481 36.931C19.7481 36.678 19.9532 36.4728 20.2063 36.4728ZM19.3156 37.9687C19.2897 37.7266 19.4798 37.519 19.722 37.5105H20.6905C20.9326 37.5192 21.1316 37.7266 21.1316 37.9687V38.6C21.1316 38.695 21.0537 38.7642 20.9586 38.7642C20.8636 38.7642 20.7857 38.6863 20.7857 38.6V38.0726C20.7857 38.038 20.7598 38.0206 20.7252 38.0206C20.6907 38.0206 20.6733 38.0465 20.6733 38.0726V39.9488C20.6733 40.0613 20.5868 40.1478 20.4743 40.1478C20.3619 40.1478 20.2753 40.0613 20.2753 39.9488V38.9977C20.2753 38.9631 20.2494 38.9457 20.2234 38.9457C20.1888 38.9457 20.1714 38.9716 20.1714 38.9977V39.9488C20.1714 40.0613 20.0849 40.1478 19.9725 40.1478C19.86 40.1478 19.7735 40.0613 19.7735 39.9488V38.0726C19.7735 38.038 19.7476 38.0206 19.7215 38.0206C19.687 38.0206 19.6611 38.0465 19.6611 38.0726V38.6C19.6611 38.695 19.5832 38.7642 19.4881 38.7642C19.3931 38.7642 19.3152 38.6863 19.3152 38.6L19.3156 37.9687ZM17.2638 30.6536C17.6984 30.6536 18.0506 31.0058 18.0506 31.4404C18.0506 31.875 17.6984 32.2272 17.2638 32.2272C16.8291 32.2272 16.4769 31.875 16.4769 31.4404C16.4769 31.0058 16.8291 30.6536 17.2638 30.6536ZM16.2692 32.4348H18.2409C18.7857 32.4348 19.2268 32.8758 19.2268 33.4205V35.833C19.2268 36.0233 19.0711 36.1788 18.8808 36.1788C18.682 36.1788 18.535 36.0231 18.535 35.833V33.6193C18.535 33.5674 18.4917 33.5243 18.4399 33.5243C18.3879 33.5243 18.3448 33.5675 18.3448 33.6193V39.6114C18.3448 39.9054 18.1286 40.1475 17.852 40.1475C17.5753 40.1475 17.3591 39.9054 17.3591 39.6114V36.196C17.3591 36.1441 17.3159 36.101 17.2641 36.101C17.2121 36.101 17.169 36.1442 17.169 36.196V39.6114C17.169 39.9054 16.9528 40.1475 16.6762 40.1475C16.3995 40.1475 16.1833 39.9054 16.1833 39.6114V33.6193C16.1833 33.5674 16.1401 33.5243 16.0883 33.5243C16.0365 33.5243 15.9932 33.5675 15.9932 33.6193V35.8415C15.9932 36.0318 15.8375 36.1873 15.6474 36.1873C15.4484 36.1873 15.3014 36.0316 15.3014 35.8415V33.4205C15.2835 32.8758 15.7331 32.4348 16.2692 32.4348Z" fill="#222D39"/>
<path d="M6.85645 41.5901H33.7184V28.7236H6.85645V41.5901ZM23.2046 30.6969C23.4986 30.6969 23.7581 30.8611 23.8877 31.0946C23.9051 31.1205 23.9223 31.1466 23.9482 31.1724C24.1039 31.3281 24.3547 31.3281 24.5017 31.1724C24.5276 31.1466 24.5449 31.1205 24.5622 31.0946C24.4671 31.7604 23.8962 32.2706 23.2044 32.2706C22.7721 32.2706 22.4175 31.9161 22.4175 31.4838C22.4175 31.0515 22.7722 30.6969 23.2046 30.6969ZM21.5097 33.3168C21.5789 32.8412 21.9853 32.4694 22.4869 32.4694H23.9916C24.4845 32.4694 24.8996 32.8412 24.9688 33.3168L25.2715 35.8243C25.2974 36.0146 25.1591 36.1875 24.9688 36.2049C24.7785 36.2307 24.6056 36.0924 24.5884 35.9022L24.303 33.5762C24.2943 33.533 24.2511 33.4984 24.208 33.4984C24.156 33.4984 24.1129 33.5417 24.1129 33.5934C24.1129 33.6021 24.1129 33.6106 24.1129 33.6106C24.1129 33.6106 24.3119 35.2622 24.3204 35.2968C24.3291 35.3401 24.3291 35.3833 24.3291 35.4264V39.6201C24.3291 39.9141 24.1129 40.1562 23.8362 40.1562C23.5681 40.1562 23.3434 39.9141 23.3434 39.6201V36.2047C23.3434 36.1527 23.3001 36.1096 23.2483 36.1096C23.1964 36.1096 23.1533 36.1529 23.1533 36.2047V39.6114C23.1533 39.9054 22.9371 40.1475 22.6604 40.1475C22.3923 40.1475 22.1676 39.9054 22.1676 39.6114V35.4179C22.1676 35.3746 22.1676 35.3314 22.1763 35.2883C22.1763 35.2537 22.3838 33.6021 22.3838 33.6021C22.3838 33.6021 22.3838 33.5934 22.3838 33.5849C22.3838 33.533 22.3405 33.4899 22.2887 33.4899C22.2369 33.4899 22.2022 33.5244 22.1936 33.5677L21.917 35.8936C21.8824 36.0926 21.7095 36.2309 21.5192 36.2049C21.3289 36.179 21.1993 36.0146 21.2165 35.8243L21.5097 33.3168ZM20.2063 36.4728C20.4595 36.4728 20.6646 36.678 20.6646 36.931C20.6646 37.184 20.4594 37.3892 20.2063 37.3892C19.9532 37.3892 19.7481 37.184 19.7481 36.931C19.7481 36.678 19.9532 36.4728 20.2063 36.4728ZM19.3156 37.9687C19.2897 37.7266 19.4798 37.519 19.722 37.5105H20.6905C20.9326 37.5192 21.1316 37.7266 21.1316 37.9687V38.6C21.1316 38.695 21.0537 38.7642 20.9586 38.7642C20.8636 38.7642 20.7857 38.6863 20.7857 38.6V38.0726C20.7857 38.038 20.7598 38.0206 20.7252 38.0206C20.6907 38.0206 20.6733 38.0465 20.6733 38.0726V39.9488C20.6733 40.0613 20.5868 40.1478 20.4743 40.1478C20.3619 40.1478 20.2753 40.0613 20.2753 39.9488V38.9977C20.2753 38.9631 20.2494 38.9457 20.2234 38.9457C20.1888 38.9457 20.1714 38.9716 20.1714 38.9977V39.9488C20.1714 40.0613 20.0849 40.1478 19.9725 40.1478C19.86 40.1478 19.7735 40.0613 19.7735 39.9488V38.0726C19.7735 38.038 19.7476 38.0206 19.7215 38.0206C19.687 38.0206 19.6611 38.0465 19.6611 38.0726V38.6C19.6611 38.695 19.5832 38.7642 19.4881 38.7642C19.3931 38.7642 19.3152 38.6863 19.3152 38.6L19.3156 37.9687ZM17.2638 30.6536C17.6984 30.6536 18.0506 31.0058 18.0506 31.4404C18.0506 31.875 17.6984 32.2272 17.2638 32.2272C16.8291 32.2272 16.4769 31.875 16.4769 31.4404C16.4769 31.0058 16.8291 30.6536 17.2638 30.6536ZM16.2692 32.4348H18.2409C18.7857 32.4348 19.2268 32.8758 19.2268 33.4205V35.833C19.2268 36.0233 19.0711 36.1788 18.8808 36.1788C18.682 36.1788 18.535 36.0231 18.535 35.833V33.6193C18.535 33.5674 18.4917 33.5243 18.4399 33.5243C18.3879 33.5243 18.3448 33.5675 18.3448 33.6193V39.6114C18.3448 39.9054 18.1286 40.1475 17.852 40.1475C17.5753 40.1475 17.3591 39.9054 17.3591 39.6114V36.196C17.3591 36.1441 17.3159 36.101 17.2641 36.101C17.2121 36.101 17.169 36.1442 17.169 36.196V39.6114C17.169 39.9054 16.9528 40.1475 16.6762 40.1475C16.3995 40.1475 16.1833 39.9054 16.1833 39.6114V33.6193C16.1833 33.5674 16.1401 33.5243 16.0883 33.5243C16.0365 33.5243 15.9932 33.5675 15.9932 33.6193V35.8415C15.9932 36.0318 15.8375 36.1873 15.6474 36.1873C15.4484 36.1873 15.3014 36.0316 15.3014 35.8415V33.4205C15.2835 32.8758 15.7331 32.4348 16.2692 32.4348Z" fill="#E98862"/>
</g>
<defs>
<clipPath id="clip0_21_270">
<rect width="39.4082" height="41.1728" fill="white" transform="translate(0.583008 0.739258)"/>
</clipPath>
</defs>
</svg>
