<svg width="57" height="56" viewBox="0 0 57 56" fill="none" xmlns="http://www.w3.org/2000/svg">
<g clip-path="url(#clip0_23_1065)">
<path d="M20.3671 36.5925L20.2167 36.6164C19.786 36.7327 19.3998 37.1702 19.3451 37.6145C19.2972 38.0109 19.5313 38.281 19.8868 38.257L20.0235 38.2331C20.4525 38.1134 20.8472 37.6383 20.9003 37.194C20.9447 36.8043 20.7158 36.5651 20.3671 36.5925Z" fill="#E98862"/>
<path d="M35.471 30.0165L35.336 30.0405C34.9002 30.1601 34.5071 30.6353 34.4525 31.0795C34.4097 31.4692 34.6353 31.7051 34.9805 31.6777L35.136 31.6538C35.5684 31.5375 35.9598 31.1035 36.0077 30.6591C36.0571 30.2626 35.823 29.9892 35.471 30.0165Z" fill="#E98862"/>
<path d="M56.1362 10.7765C55.8029 10.3731 55.268 10.1373 54.7007 10.1442C54.5913 10.1442 54.4819 10.1511 54.3725 10.1681L54.3759 10.1648C53.6667 10.2605 51.2023 10.5545 48.9789 10.551C48.2201 10.5543 47.4921 10.5202 46.8854 10.4347C45.9113 10.3014 45.0175 10.2125 44.1903 10.2125C42.9735 10.2159 41.8831 10.404 40.9671 10.9748C40.0477 11.5422 39.3812 12.4856 38.9728 13.7707C38.8138 14.2698 38.4088 15.155 37.8653 16.177C37.0502 17.7116 35.9136 19.5779 34.7703 21.1672C34.1979 21.9602 33.6253 22.6848 33.0955 23.259C32.5708 23.8332 32.0769 24.2571 31.7386 24.4382C31.607 24.5099 31.5198 24.6228 31.4618 24.7493C30.5252 25.2038 29.5836 25.6823 28.642 26.1677C26.3382 27.3504 24.0363 28.5227 21.7923 29.2336C21.6574 29.1892 21.4728 29.114 21.2574 29.0149C19.9877 28.4201 17.713 27.0188 15.6297 25.6413C14.5855 24.9508 13.5823 24.2638 12.762 23.6828C11.9417 23.1052 11.2957 22.6232 10.995 22.3737C10.3045 21.7961 9.515 21.4987 8.74424 21.4987C7.65902 21.4953 6.66436 22.09 6.04398 23.0403C5.28011 23.7615 4.27692 24.5921 3.34548 25.2995C2.87211 25.6584 2.41755 25.99 2.02106 26.2599C1.62972 26.53 1.28956 26.7385 1.0777 26.8512L1.08109 26.8546C0.990531 26.899 0.9085 26.9572 0.848672 27.0221C0.732406 27.152 0.679469 27.2852 0.648734 27.3981C0.619859 27.5109 0.611328 27.6101 0.611328 27.7092C0.614719 28.0476 0.705281 28.3757 0.855672 28.7414C1.08634 29.2849 1.46412 29.8831 2.02467 30.3787C2.58008 30.8675 3.34406 31.2469 4.25144 31.2469C4.78125 31.2469 5.33841 31.117 5.91941 30.847C5.94675 31.4555 6.15008 32.0365 6.52097 32.491C6.91067 32.9798 7.51902 33.3319 8.22142 33.3319C8.69994 33.3319 9.19552 33.1645 9.66386 32.8465C9.71341 32.9593 9.76809 33.0686 9.8382 33.1746C10.0638 33.513 10.3868 33.7899 10.7782 33.9949C11.1182 34.1761 11.4687 34.265 11.8002 34.265C12.2 34.265 12.5521 34.1351 12.8358 33.9779C13.2238 33.7591 13.5177 33.4925 13.7707 33.2977C13.3554 36.7362 12.7521 41.7195 12.3539 45.0042C13.7621 45.7185 15.2284 45.9408 16.7358 45.8279C19.9368 45.5921 23.3223 43.8523 26.7078 42.1058C30.0966 40.366 33.4839 38.6228 36.69 38.387C37.6043 38.3186 38.505 38.3733 39.3851 38.5853C39.9576 38.7186 40.7095 39.0672 40.7489 39.0844L40.8446 39.1014L40.9813 39.0468C41.0582 38.9887 41.1077 38.91 41.118 38.8211C41.1727 38.3597 42.1298 30.471 42.7894 25.0193C43.0115 25.0364 43.2354 25.05 43.449 25.05C44.8658 25.05 46.016 24.6946 46.8448 24.1511C47.2567 23.8743 47.59 23.5563 47.8292 23.1974C48.0667 22.8351 48.212 22.4352 48.212 22.0114C48.2137 21.82 48.1744 21.6286 48.1094 21.4439C49.0015 21.2628 49.7722 20.8253 50.3567 20.2886C50.7429 19.9298 51.0557 19.523 51.2779 19.0958C51.4966 18.6685 51.6316 18.2208 51.6333 17.7662C51.6351 17.5167 51.5838 17.2603 51.483 17.0176C52.9066 16.7545 54.0378 16.2007 54.8651 15.5035C56.022 14.5225 56.6048 13.2954 56.6117 12.2051C56.6113 11.6857 56.4712 11.1765 56.1362 10.7765ZM13.4133 31.9441C13.0186 32.1834 12.7212 32.4705 12.4494 32.6653C12.3161 32.7644 12.193 32.8396 12.0871 32.884C11.9811 32.9319 11.8939 32.9524 11.8 32.9524C11.6957 32.949 11.5727 32.9284 11.388 32.8327C11.1624 32.7131 11.0172 32.5763 10.93 32.4465C10.8428 32.3132 10.8035 32.1834 10.8035 32.033C10.8035 31.886 10.8497 31.7048 10.9608 31.5066C11.0343 31.4006 11.1095 31.2981 11.183 31.1818C11.3658 30.8878 11.2906 30.4982 11.0086 30.2999C10.7267 30.0948 10.3353 30.1495 10.1166 30.4162C10.0995 30.4401 10.0875 30.4606 10.0722 30.4845L10.0704 30.4812C10.0635 30.4948 10.0567 30.5051 10.0482 30.5154C9.97131 30.618 9.89781 30.7205 9.83624 30.8265C9.5337 31.2469 9.2432 31.5408 8.99033 31.722C8.66899 31.9511 8.41786 32.016 8.22131 32.0194C7.95641 32.016 7.73591 31.8998 7.53947 31.6673C7.34806 31.4315 7.21813 31.0828 7.21988 30.7206C7.22163 30.3481 7.34631 29.9754 7.65059 29.6508C7.8933 29.3944 7.88991 28.9945 7.6437 28.7416C7.3975 28.4886 6.99599 28.4749 6.73447 28.7108C5.68513 29.6542 4.86317 29.9345 4.25133 29.9345C3.88733 29.9311 3.57802 29.8388 3.29091 29.6781C2.86708 29.4388 2.50647 29.0356 2.26552 28.6288C2.14586 28.4271 2.0553 28.2254 1.99886 28.058C1.97491 27.9827 1.95784 27.9212 1.94592 27.8632C2.18863 27.7196 2.45353 27.5555 2.76284 27.3436C4.01552 26.4857 5.75873 25.1219 6.99084 23.953L7.09508 23.8197C7.51891 23.1464 8.11369 22.8147 8.74424 22.8147C9.18174 22.8147 9.662 22.972 10.1558 23.3822C10.5677 23.7274 11.3607 24.3051 12.3724 25.0125C13.8832 26.0721 15.8639 27.3914 17.631 28.4784C18.4136 28.9603 19.1485 29.391 19.7945 29.7396C19.4151 29.8046 19.0392 29.8593 18.6665 29.8866C17.7659 29.9516 16.8806 29.9003 16.0159 29.6952C15.4298 29.5619 14.6453 29.1996 14.6043 29.1824L14.5154 29.1722L14.3735 29.2268C14.2949 29.2781 14.2471 29.3636 14.2368 29.449C14.2198 29.5891 14.1172 30.4436 13.9634 31.7117C13.7585 31.7663 13.5723 31.8517 13.4133 31.9441ZM16.9578 43.9513C16.8365 43.9616 16.715 43.9684 16.5938 43.9753C16.6314 42.5978 15.7786 41.5622 14.5857 41.0426C14.8609 38.7834 15.1344 36.5206 15.4078 34.2648C15.4898 34.2682 15.5719 34.2648 15.6521 34.2614C16.7972 34.176 17.7935 33.0616 18.0653 31.7799C18.1866 31.7765 18.3096 31.7696 18.431 31.7628C20.7604 31.5885 23.1803 30.6247 25.6258 29.4454C23.7322 31.4859 22.2984 34.1895 21.9788 36.8145C21.6678 39.4327 22.5513 41.2886 24.1475 41.6373C21.7019 42.8166 19.282 43.7804 16.9578 43.9513ZM28.2866 36.5822C28.1499 36.6882 28.0029 36.7839 27.8542 36.8762C27.8184 37.1804 27.7807 37.4847 27.7449 37.7854C27.3809 37.9735 27.022 38.1615 26.6579 38.3494C26.6955 38.0486 26.7314 37.7478 26.7673 37.4538C26.4631 37.5871 26.1725 37.6862 25.9059 37.7512L25.747 37.7752C25.3779 37.8025 25.0173 37.6624 24.9985 37.6521L24.9283 37.5632L24.9985 37.3888C25.2001 37.1188 25.4069 36.8454 25.6085 36.5719C25.6632 36.5002 25.7419 36.4455 25.8033 36.4386L25.8273 36.442C25.841 36.4454 26.1059 36.5548 26.3724 36.5343L26.4887 36.5172C26.7843 36.442 27.0869 36.3258 27.3928 36.172C27.7738 35.9704 28.1003 35.7448 28.3704 35.4782C28.6421 35.215 28.7908 34.9313 28.8284 34.6442C28.8524 34.4357 28.8079 34.3058 28.702 34.2443C28.6576 34.2204 28.6012 34.2136 28.5277 34.217C28.4183 34.2273 28.273 34.2683 28.0953 34.34C27.7791 34.4767 27.4579 34.6168 27.1365 34.7536C26.7947 34.9006 26.5042 34.9826 26.2649 34.9997C26.106 35.0099 25.9709 34.9963 25.8599 34.9518C25.5847 34.8424 25.4788 34.5143 25.542 33.9742C25.5779 33.6837 25.672 33.3863 25.8172 33.0889C25.9625 32.8052 26.1523 32.5214 26.3778 32.2583C26.6068 31.9916 26.8648 31.749 27.1503 31.5268C27.2682 31.4345 27.393 31.3457 27.5177 31.2704C27.545 31.0038 27.5809 30.7406 27.61 30.4808C27.9724 30.2997 28.338 30.1117 28.6952 29.9237C28.661 30.1868 28.632 30.4432 28.6047 30.6962C28.849 30.5902 29.0883 30.5048 29.3019 30.4604C29.3737 30.4433 29.4404 30.4296 29.5088 30.4261C29.7941 30.4056 30.018 30.4808 30.03 30.4842L30.1053 30.5663C30.1104 30.6175 30.0831 30.6859 30.0421 30.7474C29.8524 30.9969 29.661 31.2635 29.4678 31.513C29.4149 31.5984 29.3329 31.6497 29.2594 31.6531C29.2525 31.6531 29.0902 31.6155 28.8988 31.6292L28.7313 31.6565C28.4835 31.7215 28.2084 31.8308 27.9213 31.9812C27.5452 32.1693 27.2599 32.388 27.06 32.6238C26.8668 32.8562 26.7523 33.0921 26.7249 33.328C26.6993 33.5364 26.7437 33.663 26.8565 33.7108C26.8975 33.7278 26.9488 33.7347 27.0103 33.7278C27.1282 33.721 27.282 33.6766 27.4803 33.5945C27.7606 33.4749 28.0374 33.3518 28.3228 33.2322C28.7039 33.0681 29.0218 32.9792 29.2764 32.9587C29.4405 32.9484 29.5806 32.9656 29.6935 33.01C29.9857 33.1297 30.09 33.4578 30.0268 34.0013C29.9891 34.3191 29.8952 34.6336 29.7379 34.9344C29.5806 35.242 29.3773 35.5325 29.1363 35.8094C28.8882 36.0866 28.6062 36.3395 28.2866 36.5822ZM39.9471 34.005C39.8668 34.0016 39.7864 34.0016 39.7095 34.0084C38.5593 34.0938 37.5596 35.2047 37.2827 36.4899C37.1614 36.4968 37.04 36.5036 36.9169 36.5138C34.5927 36.6848 32.1728 37.6452 29.7273 38.8278C31.6209 36.7804 33.0547 34.0836 33.3743 31.4586C33.6939 28.8336 32.8086 26.9846 31.2072 26.6359C33.6528 25.4567 36.0727 24.4928 38.3969 24.3219C38.5182 24.3116 38.6396 24.3049 38.7609 24.3014C38.7233 25.6788 39.5761 26.7076 40.7689 27.2238C40.5007 29.4865 40.2205 31.7491 39.9471 34.005ZM54.0188 14.4987C53.1147 15.2576 51.6928 15.8728 49.6131 15.883C49.2594 15.883 48.9705 16.1667 48.9602 16.5188C48.9499 16.8743 49.2217 17.1716 49.5755 17.1921C49.9428 17.2194 50.1104 17.3185 50.1907 17.3972C50.2693 17.4758 50.3137 17.5715 50.3206 17.7663C50.3206 17.9543 50.2574 18.2141 50.1104 18.4943C49.8968 18.9114 49.5055 19.3556 49.0012 19.6838C48.4954 20.0119 47.8801 20.2239 47.1948 20.2239C46.935 20.2239 46.6598 20.1931 46.3745 20.1248V20.1282C46.3676 20.1248 46.3626 20.1248 46.3557 20.1213C46.0036 20.0495 45.6602 20.2717 45.5832 20.6237C45.5063 20.9724 45.725 21.321 46.0736 21.403C46.0805 21.4064 46.0873 21.4064 46.0924 21.4064C46.4548 21.4817 46.6632 21.6081 46.7675 21.7106C46.8683 21.82 46.8939 21.8917 46.899 22.0114C46.899 22.1208 46.858 22.2814 46.7332 22.4694C46.5486 22.7498 46.1812 23.0744 45.6292 23.3205C45.0754 23.5666 44.3458 23.7375 43.4485 23.7375C43.2912 23.7375 43.1186 23.7239 42.946 23.7136C42.9648 23.5632 42.9819 23.4128 42.999 23.2692C41.5925 22.5583 40.1261 22.3395 38.6206 22.4489C37.3559 22.5412 36.0639 22.8727 34.7566 23.3409C35.9016 21.943 37.0945 20.1485 38.0857 18.4669C38.5967 17.5986 39.053 16.7613 39.4204 16.0264C39.7878 15.2915 40.0648 14.6626 40.2219 14.1704C40.5756 13.0834 41.0508 12.4751 41.6626 12.0889C42.2778 11.7027 43.1033 11.5283 44.1902 11.5283C44.9217 11.5283 45.7658 11.607 46.7058 11.7368C47.403 11.8325 48.1823 11.8667 48.9787 11.8667C51.3098 11.8667 53.8066 11.5626 54.5449 11.4669H54.5467L54.7004 11.4566C54.9499 11.4635 55.0422 11.5249 55.1312 11.624C55.2183 11.7231 55.2986 11.918 55.2986 12.2051C55.304 12.8068 54.9263 13.7399 54.0188 14.4987Z" fill="black"/>
<path d="M13.4133 31.9441C13.0186 32.1834 12.7212 32.4705 12.4494 32.6653C12.3161 32.7644 12.193 32.8396 12.0871 32.884C11.9811 32.9319 11.8939 32.9524 11.8 32.9524C11.6957 32.949 11.5727 32.9284 11.388 32.8327C11.1624 32.7131 11.0172 32.5763 10.93 32.4465C10.8428 32.3132 10.8035 32.1834 10.8035 32.033C10.8035 31.886 10.8497 31.7048 10.9608 31.5066C11.0343 31.4006 11.1095 31.2981 11.183 31.1818C11.3658 30.8878 11.2906 30.4982 11.0086 30.2999C10.7267 30.0948 10.3353 30.1495 10.1166 30.4162C10.0995 30.4401 10.0875 30.4606 10.0722 30.4845L10.0704 30.4812C10.0635 30.4948 10.0567 30.5051 10.0482 30.5154C9.97131 30.618 9.89781 30.7205 9.83624 30.8265C9.5337 31.2469 9.2432 31.5408 8.99033 31.722C8.66899 31.9511 8.41786 32.016 8.22131 32.0194C7.95641 32.016 7.73591 31.8998 7.53947 31.6673C7.34806 31.4315 7.21813 31.0828 7.21988 30.7206C7.22163 30.3481 7.34631 29.9754 7.65059 29.6508C7.8933 29.3944 7.88991 28.9945 7.6437 28.7416C7.3975 28.4886 6.99599 28.4749 6.73447 28.7108C5.68513 29.6542 4.86317 29.9345 4.25133 29.9345C3.88733 29.9311 3.57802 29.8388 3.29091 29.6781C2.86708 29.4388 2.50647 29.0356 2.26552 28.6288C2.14586 28.4271 2.0553 28.2254 1.99886 28.058C1.97491 27.9827 1.95784 27.9212 1.94592 27.8632C2.18863 27.7196 2.45353 27.5555 2.76284 27.3436C4.01552 26.4857 5.75873 25.1219 6.99084 23.953L7.09508 23.8197C7.51891 23.1464 8.11369 22.8147 8.74424 22.8147C9.18174 22.8147 9.662 22.972 10.1558 23.3822C10.5677 23.7274 11.3607 24.3051 12.3724 25.0125C13.8832 26.0721 15.8639 27.3914 17.631 28.4784C18.4136 28.9603 19.1485 29.391 19.7945 29.7396C19.4151 29.8046 19.0392 29.8593 18.6665 29.8866C17.7659 29.9516 16.8806 29.9003 16.0159 29.6952C15.4298 29.5619 14.6453 29.1996 14.6043 29.1824L14.5154 29.1722L14.3735 29.2268C14.2949 29.2781 14.2471 29.3636 14.2368 29.449C14.2198 29.5891 14.1172 30.4436 13.9634 31.7117C13.7585 31.7663 13.5723 31.8517 13.4133 31.9441ZM54.0188 14.4987C53.1147 15.2576 51.6928 15.8728 49.6131 15.883C49.2594 15.883 48.9705 16.1667 48.9602 16.5188C48.9499 16.8743 49.2217 17.1716 49.5755 17.1921C49.9428 17.2194 50.1104 17.3185 50.1907 17.3972C50.2693 17.4758 50.3137 17.5715 50.3206 17.7663C50.3206 17.9543 50.2574 18.2141 50.1104 18.4943C49.8968 18.9114 49.5055 19.3556 49.0012 19.6838C48.4954 20.0119 47.8801 20.2239 47.1948 20.2239C46.935 20.2239 46.6598 20.1931 46.3745 20.1248V20.1282C46.3676 20.1248 46.3626 20.1248 46.3557 20.1213C46.0036 20.0495 45.6602 20.2717 45.5832 20.6237C45.5063 20.9724 45.725 21.321 46.0736 21.403C46.0805 21.4064 46.0873 21.4064 46.0924 21.4064C46.4548 21.4817 46.6632 21.6081 46.7675 21.7106C46.8683 21.82 46.8939 21.8917 46.899 22.0114C46.899 22.1208 46.858 22.2814 46.7332 22.4694C46.5486 22.7498 46.1812 23.0744 45.6292 23.3205C45.0754 23.5666 44.3458 23.7375 43.4485 23.7375C43.2912 23.7375 43.1186 23.7239 42.946 23.7136C42.9648 23.5632 42.9819 23.4128 42.999 23.2692C41.5925 22.5583 40.1261 22.3395 38.6206 22.4489C37.3559 22.5412 36.0639 22.8727 34.7566 23.3409C35.9016 21.943 37.0945 20.1485 38.0857 18.4669C38.5967 17.5986 39.053 16.7613 39.4204 16.0264C39.7878 15.2915 40.0648 14.6626 40.2219 14.1704C40.5756 13.0834 41.0508 12.4751 41.6626 12.0889C42.2778 11.7027 43.1033 11.5283 44.1902 11.5283C44.9217 11.5283 45.7658 11.607 46.7058 11.7368C47.403 11.8325 48.1823 11.8667 48.9787 11.8667C51.3098 11.8667 53.8066 11.5626 54.5449 11.4669H54.5467L54.7004 11.4566C54.9499 11.4635 55.0422 11.5249 55.1312 11.624C55.2183 11.7231 55.2986 11.918 55.2986 12.2051C55.304 12.8068 54.9263 13.7399 54.0188 14.4987Z" fill="#0CBC8B"/>
</g>
<defs>
<clipPath id="clip0_23_1065">
<rect width="56" height="56" fill="white" transform="translate(0.611328)"/>
</clipPath>
</defs>
</svg>
