<svg width="64" height="50" viewBox="0 0 64 50" fill="none" xmlns="http://www.w3.org/2000/svg">
<path d="M17.6346 19.7384C22.878 19.7384 27.1285 15.4878 27.1285 10.2445C27.1285 5.00108 22.878 0.750488 17.6346 0.750488C12.3912 0.750488 8.14062 5.00108 8.14062 10.2445C8.14062 15.4878 12.3912 19.7384 17.6346 19.7384Z" fill="#222D39"/>
<path d="M45.8548 19.7384C51.0982 19.7384 55.3488 15.4878 55.3488 10.2445C55.3488 5.00108 51.0982 0.750488 45.8548 0.750488C40.6114 0.750488 36.3608 5.00108 36.3608 10.2445C36.3608 15.4878 40.6114 19.7384 45.8548 19.7384Z" fill="#222D39"/>
<path d="M19.6994 26.0571V37.6346H15.5695V26.0571C7.03974 27.0773 0.426758 34.3364 0.426758 43.1411H34.8421C34.8421 34.3364 28.2292 27.0773 19.6994 26.0571Z" fill="#222D39"/>
<path d="M47.9192 26.0575V37.635H43.7894V26.0571C40.2778 26.4773 37.0912 27.9544 34.5571 30.1619C37.3236 33.7605 38.9712 38.2618 38.9712 43.1415H63.062C63.062 34.3368 56.449 27.0777 47.9192 26.0575Z" fill="#222D39"/>
<circle cx="33.2132" cy="40.8236" r="8.94172" fill="#0CBC8B"/>
<path d="M28.2456 35.8572L38.0463 45.7676" stroke="#E98862" stroke-width="1.98705"/>
<path d="M38.1562 35.8569L28.3555 45.7673" stroke="#E98862" stroke-width="1.98705"/>
</svg>
