<svg width="38" height="38" viewBox="0 0 38 38" fill="none" xmlns="http://www.w3.org/2000/svg">
<circle cx="19.1703" cy="18.9445" r="18.5458" fill="#222D39"/>
<path d="M19.1709 21.3737C20.6341 21.3737 21.8203 20.1876 21.8203 18.7243C21.8203 17.2611 20.6341 16.075 19.1709 16.075C17.7077 16.075 16.5215 17.2611 16.5215 18.7243C16.5215 20.1876 17.7077 21.3737 19.1709 21.3737Z" fill="#E98862"/>
<path d="M28.4438 21.3737C29.907 21.3737 31.0932 20.1876 31.0932 18.7243C31.0932 17.2611 29.907 16.075 28.4438 16.075C26.9806 16.075 25.7944 17.2611 25.7944 18.7243C25.7944 20.1876 26.9806 21.3737 28.4438 21.3737Z" fill="#E98862"/>
<path d="M9.89793 21.374C11.3611 21.374 12.5473 20.1878 12.5473 18.7246C12.5473 17.2614 11.3611 16.0752 9.89793 16.0752C8.43471 16.0752 7.24854 17.2614 7.24854 18.7246C7.24854 20.1878 8.43471 21.374 9.89793 21.374Z" fill="#E98862"/>
</svg>
