<svg width="49" height="44" viewBox="0 0 49 44" fill="none" xmlns="http://www.w3.org/2000/svg">
<path d="M42.2599 41.2303C42.2599 41.8101 42.0295 42.3663 41.6195 42.7763C41.2094 43.1863 40.6533 43.4167 40.0734 43.4167H9.46347C8.8836 43.4167 8.32747 43.1863 7.91744 42.7763C7.5074 42.3663 7.27705 41.8101 7.27705 41.2303V21.5524H0.717773L23.297 1.02628C23.6995 0.660009 24.2242 0.457031 24.7685 0.457031C25.3127 0.457031 25.8374 0.660009 26.2399 1.02628L48.8191 21.5524H42.2599V41.2303ZM37.887 39.0438V17.5229L24.7685 5.5981L11.6499 17.5229V39.0438H37.887ZM24.7685 34.671L17.4242 27.3268C16.9674 26.87 16.6051 26.3277 16.3578 25.7308C16.1106 25.1339 15.9834 24.4942 15.9834 23.8482C15.9834 23.2022 16.1106 22.5624 16.3578 21.9656C16.6051 21.3687 16.9674 20.8264 17.4242 20.3696C17.8811 19.9128 18.4234 19.5504 19.0202 19.3032C19.6171 19.0559 20.2568 18.9287 20.9029 18.9287C21.5489 18.9287 22.1886 19.0559 22.7855 19.3032C23.3823 19.5504 23.9246 19.9128 24.3815 20.3696L24.7685 20.7566L25.1554 20.3696C25.6123 19.9128 26.1546 19.5504 26.7514 19.3032C27.3483 19.0559 27.988 18.9287 28.6341 18.9287C29.2801 18.9287 29.9198 19.0559 30.5167 19.3032C31.1135 19.5504 31.6558 19.9128 32.1127 20.3696C32.5695 20.8264 32.9318 21.3687 33.1791 21.9656C33.4263 22.5624 33.5535 23.2022 33.5535 23.8482C33.5535 24.4942 33.4263 25.1339 33.1791 25.7308C32.9318 26.3277 32.5695 26.87 32.1127 27.3268L24.7685 34.671Z" fill="#222D39"/>
<path d="M42.2599 41.2303C42.2599 41.8101 42.0295 42.3663 41.6195 42.7763C41.2094 43.1863 40.6533 43.4167 40.0734 43.4167H9.46347C8.8836 43.4167 8.32747 43.1863 7.91744 42.7763C7.5074 42.3663 7.27705 41.8101 7.27705 41.2303V21.5524H0.717773L23.297 1.02628C23.6995 0.660009 24.2242 0.457031 24.7685 0.457031C25.3127 0.457031 25.8374 0.660009 26.2399 1.02628L48.8191 21.5524H42.2599V41.2303ZM37.887 39.0438V17.5229L24.7685 5.5981L11.6499 17.5229V39.0438H37.887ZM24.7685 34.671L17.4242 27.3268C16.9674 26.87 16.6051 26.3277 16.3578 25.7308C16.1106 25.1339 15.9834 24.4942 15.9834 23.8482C15.9834 23.2022 16.1106 22.5624 16.3578 21.9656C16.6051 21.3687 16.9674 20.8264 17.4242 20.3696C17.8811 19.9128 18.4234 19.5504 19.0202 19.3032C19.6171 19.0559 20.2568 18.9287 20.9029 18.9287C21.5489 18.9287 22.1886 19.0559 22.7855 19.3032C23.3823 19.5504 23.9246 19.9128 24.3815 20.3696L24.7685 20.7566L25.1554 20.3696C25.6123 19.9128 26.1546 19.5504 26.7514 19.3032C27.3483 19.0559 27.988 18.9287 28.6341 18.9287C29.2801 18.9287 29.9198 19.0559 30.5167 19.3032C31.1135 19.5504 31.6558 19.9128 32.1127 20.3696C32.5695 20.8264 32.9318 21.3687 33.1791 21.9656C33.4263 22.5624 33.5535 23.2022 33.5535 23.8482C33.5535 24.4942 33.4263 25.1339 33.1791 25.7308C32.9318 26.3277 32.5695 26.87 32.1127 27.3268L24.7685 34.671Z" fill="#222D39"/>
<path d="M24.7685 34.6713L17.4242 27.3271C16.9674 26.8703 16.6051 26.328 16.3578 25.7311C16.1106 25.1343 15.9834 24.4946 15.9834 23.8485C15.9834 23.2025 16.1106 22.5628 16.3578 21.9659C16.6051 21.3691 16.9674 20.8267 17.4242 20.3699C17.8811 19.9131 18.4234 19.5507 19.0202 19.3035C19.6171 19.0563 20.2568 18.929 20.9029 18.929C21.5489 18.929 22.1886 19.0563 22.7855 19.3035C23.3823 19.5507 23.9246 19.9131 24.3815 20.3699L24.7685 20.7569L25.1554 20.3699C25.6123 19.9131 26.1546 19.5507 26.7514 19.3035C27.3483 19.0563 27.988 18.929 28.6341 18.929C29.2801 18.929 29.9198 19.0563 30.5167 19.3035C31.1135 19.5507 31.6558 19.9131 32.1127 20.3699C32.5695 20.8267 32.9318 21.3691 33.1791 21.9659C33.4263 22.5628 33.5535 23.2025 33.5535 23.8485C33.5535 24.4946 33.4263 25.1343 33.1791 25.7311C32.9318 26.328 32.5695 26.8703 32.1127 27.3271L24.7685 34.6713Z" fill="#222D39"/>
<path d="M24.7685 34.6713L17.4242 27.3271C16.9674 26.8703 16.6051 26.328 16.3578 25.7311C16.1106 25.1343 15.9834 24.4946 15.9834 23.8485C15.9834 23.2025 16.1106 22.5628 16.3578 21.9659C16.6051 21.3691 16.9674 20.8267 17.4242 20.3699C17.8811 19.9131 18.4234 19.5507 19.0202 19.3035C19.6171 19.0563 20.2568 18.929 20.9029 18.929C21.5489 18.929 22.1886 19.0563 22.7855 19.3035C23.3823 19.5507 23.9246 19.9131 24.3815 20.3699L24.7685 20.7569L25.1554 20.3699C25.6123 19.9131 26.1546 19.5507 26.7514 19.3035C27.3483 19.0563 27.988 18.929 28.6341 18.929C29.2801 18.929 29.9198 19.0563 30.5167 19.3035C31.1135 19.5507 31.6558 19.9131 32.1127 20.3699C32.5695 20.8267 32.9318 21.3691 33.1791 21.9659C33.4263 22.5628 33.5535 23.2025 33.5535 23.8485C33.5535 24.4946 33.4263 25.1343 33.1791 25.7311C32.9318 26.328 32.5695 26.8703 32.1127 27.3271L24.7685 34.6713Z" fill="#E98862"/>
</svg>
