<svg width="42" height="43" viewBox="0 0 42 43" fill="none" xmlns="http://www.w3.org/2000/svg">
<path d="M20.6388 42.1927C9.24378 42.1927 0.00683594 32.9558 0.00683594 21.5607C0.00683594 10.1657 9.24378 0.928711 20.6388 0.928711C32.0339 0.928711 41.2708 10.1657 41.2708 21.5607C41.2708 32.9558 32.0339 42.1927 20.6388 42.1927ZM20.6388 38.0663C25.0164 38.0663 29.2147 36.3273 32.3101 33.2319C35.4054 30.1365 37.1444 25.9383 37.1444 21.5607C37.1444 17.1831 35.4054 12.9849 32.3101 9.88949C29.2147 6.79409 25.0164 5.05511 20.6388 5.05511C16.2613 5.05511 12.063 6.79409 8.96761 9.88949C5.87221 12.9849 4.13323 17.1831 4.13323 21.5607C4.13323 25.9383 5.87221 30.1365 8.96761 33.2319C12.063 36.3273 16.2613 38.0663 20.6388 38.0663ZM10.3228 31.8767C10.3228 29.1407 11.4097 26.5168 13.3443 24.5822C15.2789 22.6476 17.9029 21.5607 20.6388 21.5607C23.3748 21.5607 25.9987 22.6476 27.9333 24.5822C29.868 26.5168 30.9548 29.1407 30.9548 31.8767H26.8284C26.8284 30.2351 26.1763 28.6608 25.0155 27.5C23.8548 26.3392 22.2804 25.6871 20.6388 25.6871C18.9972 25.6871 17.4229 26.3392 16.2621 27.5C15.1013 28.6608 14.4492 30.2351 14.4492 31.8767H10.3228ZM12.386 19.4975C11.5652 19.4975 10.7781 19.1714 10.1977 18.5911C9.61729 18.0107 9.29123 17.2235 9.29123 16.4027C9.29123 15.5819 9.61729 14.7947 10.1977 14.2144C10.7781 13.634 11.5652 13.3079 12.386 13.3079C13.2068 13.3079 13.994 13.634 14.5744 14.2144C15.1548 14.7947 15.4808 15.5819 15.4808 16.4027C15.4808 17.2235 15.1548 18.0107 14.5744 18.5911C13.994 19.1714 13.2068 19.4975 12.386 19.4975ZM28.8916 19.4975C28.0708 19.4975 27.2837 19.1714 26.7033 18.5911C26.1229 18.0107 25.7968 17.2235 25.7968 16.4027C25.7968 15.5819 26.1229 14.7947 26.7033 14.2144C27.2837 13.634 28.0708 13.3079 28.8916 13.3079C29.7124 13.3079 30.4996 13.634 31.08 14.2144C31.6604 14.7947 31.9864 15.5819 31.9864 16.4027C31.9864 17.2235 31.6604 18.0107 31.08 18.5911C30.4996 19.1714 29.7124 19.4975 28.8916 19.4975Z" fill="#0CBC8B"/>
</svg>
