<svg width="44" height="39" viewBox="0 0 44 39" fill="none" xmlns="http://www.w3.org/2000/svg">
<path d="M35.7479 38.3981H8.40997C7.89208 38.3981 7.3954 38.1924 7.02919 37.8262C6.66299 37.46 6.45726 36.9633 6.45726 36.4454V18.871H0.599121L20.7648 0.538921C21.1243 0.211798 21.5929 0.0305176 22.079 0.0305176C22.565 0.0305176 23.0336 0.211798 23.3931 0.538921L43.5588 18.871H37.7007V36.4454C37.7007 36.9633 37.4949 37.46 37.1287 37.8262C36.7625 38.1924 36.2658 38.3981 35.7479 38.3981ZM10.3627 34.4927H33.7952V15.2721L22.079 4.62204L10.3627 15.2721V34.4927ZM14.2681 26.6818H29.8898V30.5873H14.2681V26.6818Z" fill="#222D39"/>
<path d="M35.7479 38.3981H8.40997C7.89208 38.3981 7.3954 38.1924 7.02919 37.8262C6.66299 37.46 6.45726 36.9633 6.45726 36.4454V18.871H0.599121L20.7648 0.538921C21.1243 0.211798 21.5929 0.0305176 22.079 0.0305176C22.565 0.0305176 23.0336 0.211798 23.3931 0.538921L43.5588 18.871H37.7007V36.4454C37.7007 36.9633 37.4949 37.46 37.1287 37.8262C36.7625 38.1924 36.2658 38.3981 35.7479 38.3981ZM10.3627 34.4927H33.7952V15.2721L22.079 4.62204L10.3627 15.2721V34.4927ZM14.2681 26.6818H29.8898V30.5873H14.2681V26.6818Z" fill="#222D39"/>
<path d="M14.2681 26.6817H29.8898V30.5871H14.2681V26.6817Z" fill="#222D39"/>
<path d="M14.2681 26.6817H29.8898V30.5871H14.2681V26.6817Z" fill="#E98862"/>
</svg>
