<svg width="49" height="44" viewBox="0 0 49 44" fill="none" xmlns="http://www.w3.org/2000/svg">
<path d="M10.98 38.6845H37.2171V17.1635L24.0985 5.23872L10.98 17.1635V38.6845ZM39.4035 43.0573H8.79355C8.21368 43.0573 7.65755 42.827 7.24752 42.4169C6.83748 42.0069 6.60713 41.4508 6.60713 40.8709V21.1931H0.0478516L22.6271 0.666908C23.0296 0.300634 23.5543 0.0976562 24.0985 0.0976562C24.6428 0.0976563 25.1675 0.300634 25.57 0.666908L48.1492 21.1931H41.5899V40.8709C41.5899 41.4508 41.3596 42.0069 40.9495 42.4169C40.5395 42.827 39.9834 43.0573 39.4035 43.0573ZM14.2596 25.5659H18.6325C18.6325 27.0156 19.2084 28.4059 20.2334 29.431C21.2585 30.4561 22.6488 31.032 24.0985 31.032C25.5482 31.032 26.9385 30.4561 27.9636 29.431C28.9887 28.4059 29.5646 27.0156 29.5646 25.5659H33.9374C33.9374 28.1754 32.9008 30.6779 31.0557 32.5231C29.2105 34.3682 26.708 35.4048 24.0985 35.4048C21.4891 35.4048 18.9865 34.3682 17.1414 32.5231C15.2962 30.6779 14.2596 28.1754 14.2596 25.5659V25.5659Z" fill="#222D39"/>
<path d="M14.2596 25.5662H18.6325C18.6325 27.0159 19.2084 28.4062 20.2334 29.4313C21.2585 30.4564 22.6488 31.0323 24.0985 31.0323C25.5482 31.0323 26.9385 30.4564 27.9636 29.4313C28.9887 28.4062 29.5646 27.0159 29.5646 25.5662H33.9374C33.9374 28.1757 32.9008 30.6783 31.0557 32.5234C29.2105 34.3686 26.708 35.4052 24.0985 35.4052C21.4891 35.4052 18.9865 34.3686 17.1414 32.5234C15.2962 30.6783 14.2596 28.1757 14.2596 25.5662Z" fill="#E98862"/>
</svg>
