<svg width="57" height="56" viewBox="0 0 57 56" fill="none" xmlns="http://www.w3.org/2000/svg">
<path d="M8.92383 5.03125C5.28733 5.03125 2.36133 7.95725 2.36133 11.5938V44.4062C2.36133 48.0428 5.28733 50.9688 8.92383 50.9688H48.2988C51.9353 50.9688 54.8613 48.0428 54.8613 44.4062V11.5938C54.8613 7.95725 51.9353 5.03125 48.2988 5.03125H8.92383ZM8.92383 11.5938H48.2988V44.4062H8.92383V11.5938ZM25.3301 18.1562V24.7188H18.7676V31.2812H25.3301V37.8438H31.8926V31.2812H38.4551V24.7188H31.8926V18.1562H25.3301Z" fill="black"/>
<path d="M25.3301 18.1562V24.7188H18.7676V31.2812H25.3301V37.8438H31.8926V31.2812H38.4551V24.7188H31.8926V18.1562H25.3301Z" fill="#0CBC8B"/>
</svg>
