<svg width="46" height="44" viewBox="0 0 46 44" fill="none" xmlns="http://www.w3.org/2000/svg">
<path d="M20.0019 42.3308L20.0037 42.3274H20L20.0019 42.3308Z" fill="#0CBC8B"/>
<path d="M36.1825 41.5202C31.7374 41.5202 28.1173 37.9015 28.1173 33.455C28.1173 29.007 31.7345 25.3883 36.1825 25.3883C40.6306 25.3883 44.2493 29.007 44.2493 33.455C44.2495 37.9015 40.6293 41.5202 36.1825 41.5202Z" fill="#E98862"/>
<path d="M36.4989 29.3773C36.7586 29.3773 36.9929 29.2601 37.2019 29.0212C37.4109 28.782 37.5136 28.5226 37.5136 28.2423C37.5136 27.9623 37.4343 27.731 37.2778 27.5474C37.1195 27.3636 36.9138 27.2734 36.6604 27.2734C36.4069 27.2734 36.176 27.4016 35.9639 27.6579C35.7531 27.9143 35.6504 28.1773 35.6504 28.4495C35.6504 28.7251 35.7263 28.9466 35.8784 29.1192C36.0302 29.2918 36.2377 29.3773 36.4989 29.3773Z" fill="#E98862"/>
<path d="M37.7163 37.9674C37.4202 38.1779 37.1688 38.284 36.9564 38.284C36.7459 38.284 36.6414 38.1036 36.6414 37.7425C36.6414 37.5621 36.6575 37.3372 36.6858 37.0666L36.9421 34.1316C37.0529 32.9856 37.1085 32.3713 37.1085 32.2985C37.1085 31.4344 36.8218 31.0039 36.2519 31.0039C35.7455 31.0039 35.2326 31.254 34.7134 31.751C34.1943 32.2512 33.7999 32.8525 33.5293 33.5604L33.9663 33.8625C34.6121 32.8985 35.0457 32.4173 35.2643 32.4173C35.4827 32.4173 35.5903 32.6563 35.5903 33.139C35.5903 33.3179 35.581 33.5206 35.5604 33.739L35.2295 36.6738C35.1486 37.4908 35.1094 38.0732 35.1094 38.4184C35.1094 38.7649 35.1884 39.0545 35.3467 39.2875C35.5048 39.5204 35.7772 39.6374 36.1635 39.6374C37.3921 39.6374 38.2849 38.8949 38.8389 37.4103L38.4494 37.1396C38.256 37.4812 38.0122 37.7571 37.7163 37.9674Z" fill="#E98862"/>
<path d="M20.0019 42.3308L20.0037 42.3274H20L20.0019 42.3308Z" fill="#0CBC8B"/>
<path d="M36.1825 23.7687C34.2291 23.7687 32.412 24.3562 30.886 25.3563C29.0498 24.2039 27.0044 23.2659 24.7916 22.7049C28.3071 20.34 30.7277 15.6798 30.7277 11.4801C30.7277 5.55569 25.9219 0.750732 19.9999 0.750732C14.0763 0.750732 9.27211 5.55439 9.27211 11.4801C9.27211 15.6798 11.6927 20.34 15.2082 22.7049C6.80191 24.8356 0.575195 32.1334 0.575195 37.5391C0.575195 40.7351 10.2868 42.3308 19.9983 42.3292L14.5575 36.89L19.1386 25.8154H19.0921L17.3118 23.7749C18.1708 24.0838 19.0689 24.2704 19.9996 24.2704C20.928 24.2704 21.8248 24.0835 22.6838 23.7765L20.9035 25.8154H20.8601L25.4405 36.8884L20.0014 42.3277C23.8417 42.3277 27.6788 42.0758 30.9208 41.5756C32.4372 42.5601 34.2419 43.1411 36.1825 43.1411C41.5235 43.1411 45.8689 38.7958 45.8689 33.4548C45.8704 28.114 41.5235 23.7687 36.1825 23.7687ZM36.1825 41.5202C31.7374 41.5202 28.1173 37.9015 28.1173 33.455C28.1173 29.007 31.7345 25.3883 36.1825 25.3883C40.6306 25.3883 44.2493 29.007 44.2493 33.455C44.2495 37.9015 40.6293 41.5202 36.1825 41.5202Z" fill="#222D39"/>
<path d="M36.4989 29.3773C36.7586 29.3773 36.9929 29.2601 37.2019 29.0212C37.4109 28.782 37.5136 28.5226 37.5136 28.2423C37.5136 27.9623 37.4343 27.731 37.2778 27.5474C37.1195 27.3636 36.9138 27.2734 36.6604 27.2734C36.4069 27.2734 36.176 27.4016 35.9639 27.6579C35.7531 27.9143 35.6504 28.1773 35.6504 28.4495C35.6504 28.7251 35.7263 28.9466 35.8784 29.1192C36.0302 29.2918 36.2377 29.3773 36.4989 29.3773Z" fill="#222D39"/>
<path d="M37.7163 37.9674C37.4202 38.1779 37.1688 38.284 36.9564 38.284C36.7459 38.284 36.6414 38.1036 36.6414 37.7425C36.6414 37.5621 36.6575 37.3372 36.6858 37.0666L36.9421 34.1316C37.0529 32.9856 37.1085 32.3713 37.1085 32.2985C37.1085 31.4344 36.8218 31.0039 36.2519 31.0039C35.7455 31.0039 35.2326 31.254 34.7134 31.751C34.1943 32.2512 33.7999 32.8525 33.5293 33.5604L33.9663 33.8625C34.6121 32.8985 35.0457 32.4173 35.2643 32.4173C35.4827 32.4173 35.5903 32.6563 35.5903 33.139C35.5903 33.3179 35.581 33.5206 35.5604 33.739L35.2295 36.6738C35.1486 37.4908 35.1094 38.0732 35.1094 38.4184C35.1094 38.7649 35.1884 39.0545 35.3467 39.2875C35.5048 39.5204 35.7772 39.6374 36.1635 39.6374C37.3921 39.6374 38.2849 38.8949 38.8389 37.4103L38.4494 37.1396C38.256 37.4812 38.0122 37.7571 37.7163 37.9674Z" fill="#222D39"/>
</svg>
