<svg width="51" height="51" viewBox="0 0 51 51" fill="none" xmlns="http://www.w3.org/2000/svg">
<g clip-path="url(#clip0_21_277)">
<path d="M8.76134 20.0996H5.6155C5.27537 20.0996 4.99951 20.3755 4.99951 20.7156V25.0297C4.99951 25.3698 5.27537 25.6456 5.6155 25.6456H8.76124C9.10136 25.6456 9.37722 25.3698 9.37722 25.0297V20.7156C9.37732 20.3755 9.10147 20.0996 8.76134 20.0996ZM8.14535 21.3316V21.7174H6.23148V21.3316H8.14535ZM6.23148 24.4138V22.9494H8.14525V24.4138H6.23148Z" fill="#E98862"/>
<path d="M12.1765 25.6456H15.3224C15.6625 25.6456 15.9384 25.3698 15.9384 25.0297V20.7156C15.9384 20.3755 15.6625 20.0996 15.3224 20.0996H12.1765C11.8364 20.0996 11.5605 20.3755 11.5605 20.7156V25.0297C11.5605 25.3698 11.8364 25.6456 12.1765 25.6456ZM12.7925 24.4137V22.9493H14.7064V24.4137H12.7925ZM14.7064 21.3315V21.7173H12.7925V21.3315H14.7064Z" fill="#E98862"/>
<path d="M8.76134 26.75H5.6155C5.27537 26.75 4.99951 27.0259 4.99951 27.366V31.6801C4.99951 32.0203 5.27537 32.2961 5.6155 32.2961H8.76124C9.10136 32.2961 9.37722 32.0203 9.37722 31.6801V27.366C9.37732 27.0258 9.10147 26.75 8.76134 26.75ZM8.14535 27.982V28.3678H6.23148V27.982H8.14535ZM6.23148 31.0642V29.5997H8.14525V31.0642H6.23148Z" fill="#E98862"/>
<path d="M23.6812 22.1523H20.5354C20.1953 22.1523 19.9194 22.4282 19.9194 22.7683V27.0825C19.9194 27.4226 20.1953 27.6985 20.5354 27.6985H23.6812C24.0213 27.6985 24.2971 27.4226 24.2971 27.0825V22.7683C24.2971 22.4282 24.0213 22.1523 23.6812 22.1523ZM23.0652 23.3843V23.7702H21.1514V23.3843H23.0652ZM21.1514 26.4666V25.0022H23.0652V26.4666H21.1514Z" fill="#E98862"/>
<path d="M30.2423 22.1523H27.0965C26.7563 22.1523 26.4805 22.4282 26.4805 22.7683V27.0825C26.4805 27.4226 26.7563 27.6985 27.0965 27.6985H30.2423C30.5824 27.6985 30.8583 27.4226 30.8583 27.0825V22.7683C30.8583 22.4282 30.5824 22.1523 30.2423 22.1523ZM29.6263 23.3843V23.7702H27.7124V23.3843H29.6263ZM27.7124 26.4666V25.0022H29.6263V26.4666H27.7124Z" fill="#E98862"/>
<path d="M23.6812 28.8037H20.5354C20.1953 28.8037 19.9194 29.0796 19.9194 29.4197V33.7338C19.9194 34.0739 20.1953 34.3497 20.5354 34.3497H23.6812C24.0213 34.3497 24.2971 34.0739 24.2971 33.7338V29.4197C24.2971 29.0795 24.0213 28.8037 23.6812 28.8037ZM23.0652 30.0357V30.4215H21.1514V30.0357H23.0652ZM21.1514 33.1178V31.6534H23.0652V33.1178H21.1514Z" fill="#E98862"/>
<path d="M35.4553 29.7659H38.6011C38.9412 29.7659 39.2171 29.49 39.2171 29.1499V24.8357C39.2171 24.4956 38.9412 24.2197 38.6011 24.2197H35.4553C35.1152 24.2197 34.8394 24.4956 34.8394 24.8357V29.1499C34.8394 29.49 35.1151 29.7659 35.4553 29.7659ZM36.0713 28.5339V27.0695H37.9851V28.5339H36.0713ZM37.9851 25.4516V25.8375H36.0713V25.4516H37.9851Z" fill="#E98862"/>
<path d="M42.0164 29.7659H45.1622C45.5023 29.7659 45.7782 29.49 45.7782 29.1499V24.8357C45.7782 24.4956 45.5023 24.2197 45.1622 24.2197H42.0164C41.6762 24.2197 41.4004 24.4956 41.4004 24.8357V29.1499C41.4004 29.49 41.6762 29.7659 42.0164 29.7659ZM42.6324 28.5339V27.0695H44.5462V28.5339H42.6324ZM44.5462 25.4516V25.8375H42.6324V25.4516H44.5462Z" fill="#E98862"/>
<path d="M35.4553 36.4171H38.6011C38.9412 36.4171 39.2171 36.1413 39.2171 35.8011V31.4871C39.2171 31.147 38.9412 30.8711 38.6011 30.8711H35.4553C35.1152 30.8711 34.8394 31.147 34.8394 31.4871V35.8011C34.8394 36.1413 35.1151 36.4171 35.4553 36.4171ZM36.0713 35.1852V33.7207H37.9851V35.1852H36.0713ZM37.9851 32.103V32.4888H36.0713V32.103H37.9851Z" fill="#E98862"/>
<path d="M49.8546 38.6181L48.7605 38.4712V23.2047H49.5664C49.9066 23.2047 50.1824 22.9288 50.1824 22.5887V15.9382C50.1824 15.5981 49.9066 15.3222 49.5664 15.3222H35.2622V13.8704C35.2622 13.5303 34.9864 13.2545 34.6462 13.2545H20.3425V11.8172C20.3425 11.477 20.0668 11.2012 19.7265 11.2012H1.21143C0.871201 11.2012 0.595445 11.477 0.595445 11.8172V18.4683C0.595445 18.8084 0.871201 19.0843 1.21143 19.0843H2.01735V32.1959L1.08669 32.071C0.749647 32.0251 0.439498 32.2624 0.394223 32.5995C0.348948 32.9366 0.585589 33.2467 0.922739 33.2919L49.6906 39.8389C49.7184 39.8427 49.746 39.8445 49.7733 39.8445C50.077 39.8445 50.3415 39.6198 50.383 39.3104C50.4284 38.9733 50.1918 38.6634 49.8546 38.6181ZM47.5285 38.3059L46.857 38.2158V36.97C46.857 36.6299 46.5812 36.354 46.241 36.354H45.7782V31.4872C45.7782 31.1471 45.5024 30.8712 45.1622 30.8712H42.0164C41.6763 30.8712 41.4004 31.1471 41.4004 31.4872V36.354H40.9383C40.5982 36.354 40.3223 36.6299 40.3223 36.97V37.3385L33.8411 36.4684V23.2047H47.5283L47.5285 38.3059ZM44.5464 36.354H42.6325V32.1032H44.5464V36.354ZM45.6252 37.586V38.0504L42.1662 37.586H45.6252ZM29.6265 34.2864H27.7126V30.036H29.6265V34.2864ZM30.7049 35.5183V36.0473L26.7649 35.5183H30.7049ZM31.3209 34.2864H30.8584V29.42C30.8584 29.0799 30.5826 28.804 30.2424 28.804H27.0966C26.7565 28.804 26.4806 29.0799 26.4806 29.42V34.2864H26.0182C25.6781 34.2864 25.4022 34.5622 25.4022 34.9024V35.3354L18.921 34.4653V21.1382H32.6093V36.303L31.9368 36.2128V34.9025C31.9369 34.5621 31.6611 34.2864 31.3209 34.2864ZM35.2621 20.5222V16.5543H48.9504V21.9728H33.8412V21.1382H34.6461C34.9864 21.1382 35.2621 20.8623 35.2621 20.5222ZM20.3425 18.4684V14.4865H34.0301V19.9062H18.921V19.0844H19.7265C20.0668 19.0844 20.3425 18.8085 20.3425 18.4684ZM1.82742 12.4332H19.1106V17.8524H2.64329C2.64001 17.8524 2.63672 17.8519 2.63333 17.8519C2.62994 17.8519 2.62676 17.8523 2.62337 17.8524H1.82742V12.4332ZM3.24942 19.0844H17.6892V34.2999L17.0167 34.2097V32.8491C17.0167 32.5089 16.7409 32.2331 16.4007 32.2331H15.9385V27.3664C15.9385 27.0263 15.6627 26.7504 15.3225 26.7504H12.1767C11.8366 26.7504 11.5607 27.0263 11.5607 27.3664V32.2331H11.0981C10.758 32.2331 10.4821 32.5089 10.4821 32.8491V33.3324L3.24942 32.3614V19.0844ZM14.7066 32.2331H12.7927V27.9824H14.7066V32.2331ZM11.7141 33.4651H15.7847V34.0443L11.7141 33.4978V33.4651Z" fill="#222D39"/>
</g>
<defs>
<clipPath id="clip0_21_277">
<rect width="50" height="50" fill="white" transform="translate(0.388672 0.523438)"/>
</clipPath>
</defs>
</svg>
