<svg width="41" height="42" viewBox="0 0 41 42" fill="none" xmlns="http://www.w3.org/2000/svg">
<path d="M15.7398 19.0945C15.3528 18.7075 14.8279 18.4901 14.2805 18.4901C13.7332 18.4901 13.2083 18.7075 12.8213 19.0945C12.4342 19.4816 12.2168 20.0065 12.2168 20.5538C12.2168 21.1012 12.4342 21.6261 12.8213 22.0131L18.9873 28.1791C19.1793 28.3696 19.4071 28.5203 19.6575 28.6226C19.9079 28.7249 20.1761 28.7768 20.4466 28.7752C20.7279 28.7663 21.0045 28.6996 21.259 28.5794C21.5136 28.4592 21.7407 28.288 21.9264 28.0764L36.3138 11.6337C36.646 11.2212 36.8062 10.6965 36.7609 10.1688C36.7157 9.64113 36.4685 9.1513 36.0709 8.80143C35.6733 8.45156 35.156 8.26867 34.6269 8.29087C34.0978 8.31308 33.5976 8.53867 33.2308 8.92062L20.4466 23.7191L15.7398 19.0945Z" fill="#E98862"/>
<path d="M38.9447 18.498C38.3996 18.498 37.8768 18.7146 37.4913 19.1C37.1059 19.4855 36.8893 20.0083 36.8893 20.5534C36.8893 24.9143 35.157 29.0965 32.0734 32.1801C28.9898 35.2637 24.8075 36.9961 20.4466 36.9961C17.1994 36.9946 14.0253 36.0316 11.3245 34.2286C8.62382 32.4257 6.51744 29.8634 5.27099 26.8648C4.02454 23.8663 3.69385 20.5659 4.32062 17.3797C4.94738 14.1935 6.50354 11.2642 8.79285 8.96127C10.3152 7.4185 12.1301 6.19487 14.1311 5.36199C16.1321 4.52911 18.2792 4.10371 20.4466 4.11068C21.7609 4.1189 23.0704 4.27053 24.3518 4.56285C24.6199 4.64579 24.9022 4.67293 25.1813 4.6426C25.4603 4.61226 25.7302 4.52509 25.9742 4.38646C26.2183 4.24783 26.4314 4.06067 26.6003 3.83654C26.7693 3.6124 26.8906 3.35604 26.9567 3.08324C27.0228 2.81044 27.0323 2.527 26.9846 2.25039C26.937 1.97378 26.8332 1.70985 26.6796 1.47489C26.5261 1.23993 26.326 1.03891 26.0918 0.88423C25.8576 0.729546 25.5941 0.624475 25.3178 0.575495C23.7211 0.199867 22.0869 0.00679788 20.4466 0C16.386 0.021095 12.4225 1.24455 9.05654 3.51597C5.69054 5.78739 3.07278 9.00497 1.53364 12.7627C-0.00550318 16.5204 -0.397063 20.6498 0.408375 24.6298C1.21381 28.6099 3.18015 32.2621 6.05925 35.1257C9.87538 38.9436 15.0486 41.0942 20.4466 41.1068C25.8977 41.1068 31.1255 38.9413 34.9801 35.0868C38.8346 31.2323 41 26.0045 41 20.5534C41 20.0083 40.7835 19.4855 40.398 19.1C40.0126 18.7146 39.4898 18.498 38.9447 18.498Z" fill="#222D39"/>
</svg>
